<?xml version="1.0" encoding="utf-8"?>
<!-- Generator: Adobe Illustrator 23.0.2, SVG Export Plug-In . SVG Version: 6.00 Build 0)  -->
<svg version="1.1" id="Layer_1" xmlns="http://www.w3.org/2000/svg" xmlns:xlink="http://www.w3.org/1999/xlink" x="0px" y="0px"
	 viewBox="0 0 69.2 65.5" style="enable-background:new 0 0 69.2 65.5;" xml:space="preserve">
<style type="text/css">
	.st0{fill:#FFCF00;}
	.st1{fill:#D1D1D1;}
	.st2{fill:#E3E3E3;}
	.st3{fill:#707070;}
	.st4{fill:#005E65;}
	.st5{fill:#333333;}
	.st6{fill:#C49300;}
	.st7{opacity:0.63;fill:#B3B3B3;}
	.st8{fill:#768C91;}
	.st9{fill:#FFFFD3;}
	.st10{fill:#FEE5B3;}
	.st11{opacity:0.7;fill:#E9C8B0;}
	.st12{fill:#FF8000;}
	.st13{fill:#FFA100;}
	.st14{opacity:0.28;fill:#FFFFFF;}
	.st15{opacity:0.61;}
	.st16{fill:#969696;}
	.st17{fill:#F0F0F0;}
	.st18{fill:#016C74;}
	.st19{fill:#E0A800;}
	.st20{fill:#FEF7B2;}
	.st21{fill:#FF9400;}
	.st22{opacity:0.47;}
	.st23{fill:#FFFFFF;}
	.st24{fill:#017F87;}
	.st25{fill:#FFBF00;}
	.st26{fill:#FFD600;}
	.st27{fill:#41B5BB;}
	.st28{opacity:0.12;}
</style>
<g>
	<g>
		<g>
			<path class="st0" d="M64.8,3.5c-1.8,0.3-3.5,0.6-5.3,0.9c-0.4,0.1-0.7,0.5-0.1,0.4c1.8-0.3,3.5-0.6,5.3-0.9
				C65.1,3.9,65.4,3.5,64.8,3.5L64.8,3.5z"/>
		</g>
		<g>
			<path class="st0" d="M65.2,18.4c-1.6-1-3.2-2-4.8-3c-0.2-0.1-0.8,0.2-0.7,0.3c1.6,1,3.2,2,4.8,3C64.6,18.8,65.3,18.5,65.2,18.4
				L65.2,18.4z"/>
		</g>
		<g>
			<path class="st0" d="M9.1,3.5c1.6,0.6,3.2,1.3,4.7,1.9c0.2,0.1,0.8-0.2,0.7-0.3C13,4.5,11.4,3.9,9.8,3.3C9.6,3.2,9,3.5,9.1,3.5
				L9.1,3.5z"/>
		</g>
		<g>
			<path class="st0" d="M9.8,18.4c1.3-0.8,2.7-1.6,4-2.4c0.3-0.2-0.5-0.1-0.6,0c-1.3,0.8-2.7,1.6-4,2.4C8.8,18.6,9.6,18.5,9.8,18.4
				L9.8,18.4z"/>
		</g>
	</g>
	<rect x="7.3" class="st1" width="2.5" height="40.1"/>
	<rect x="63.5" class="st1" width="2.5" height="47.2"/>
	<g>
		<path class="st2" d="M57,30.9h-6.3c-0.2,0-0.3-0.2-0.2-0.5l0.4-1.3c0.1-0.3,0.3-0.5,0.5-0.5h4.8c0.2,0,0.5,0.2,0.5,0.5l0.4,1.3
			C57.3,30.7,57.2,30.9,57,30.9z"/>
		<g>
			<rect x="54.9" y="29.7" class="st3" width="0.7" height="0.7"/>
			<rect x="54.2" y="28.9" class="st3" width="0.7" height="0.7"/>
			<rect x="53.5" y="29.7" class="st3" width="0.7" height="0.7"/>
			<rect x="52.8" y="28.9" class="st3" width="0.7" height="0.7"/>
			<rect x="52" y="29.7" class="st3" width="0.7" height="0.7"/>
		</g>
		<path class="st4" d="M65.5,36.8c-0.2,0-8.1-0.4-11.7-0.4c-3.5-0.1-11.4,0.4-11.6,0.4c-0.2,0,2.9-4.9,2.9-4.9l8.7-0.3l8.7,0.3
			C62.6,31.9,65.7,36.8,65.5,36.8z"/>
		<path class="st5" d="M42.9,49.3l0,2.2c0,0.2-0.1,0.3-0.3,0.3l-3.6,0c-0.2,0-0.3-0.1-0.3-0.3l0-6.1c0.1,1.5,0.3,2.9,0.3,3
			c0,0.2,0,0.5,0,0.6c0.1,0.2,0.3,0.2,0.7,0.2C39.9,49.3,41.2,49.3,42.9,49.3z"/>
		<path class="st5" d="M69.1,44l0,7.5c0,0.2-0.1,0.3-0.3,0.3l-3.6,0c-0.2,0-0.3-0.1-0.3-0.3l0-2.3c1.6,0,2.8,0,2.9,0
			c0.4,0,0.6,0,0.7-0.2c0.1-0.2,0-0.4,0-0.6c0-0.1,0.3-2.7,0.4-4.5C69.1,43.9,69.1,43.9,69.1,44z"/>
		<path class="st6" d="M69,40.2c0-0.5-1.2-1.6-1.5-1.9c-0.2-0.2-1-0.9-1.3-1c-0.2-0.1-0.2-0.1-0.2-0.2c0.1,0,0.3-0.1,0.4-0.1
			c0.1,0,0.1,0.2,0.3,0.2c0.2,0,0.4-0.1,0.6-0.1c0.4-0.1,0.7-0.1,1.1-0.2c0.6-0.1,0.8-0.7,0.7-1.2c0-0.5-0.5-0.7-1-0.7
			c-0.4-0.1-1-0.3-1.3,0c-0.6,0.3-0.3,1.4-1.2,1.2c-0.7-1.2-2.6-4.2-2.8-4.4c-0.2-0.2-0.6-0.6-1.2-0.7c-0.6-0.1-6.7-0.4-7.8-0.4
			c-1.1,0-7.2,0.3-7.8,0.4c-0.6,0.1-1,0.5-1.2,0.7c-0.2,0.2-2.1,3.2-2.8,4.4c0,0,0,0,0,0c-0.8,0.1-0.6-0.9-1.2-1.2
			c-0.4-0.2-0.9-0.1-1.3,0c-0.4,0.1-0.9,0.2-1,0.7c0,0.5,0.2,1.1,0.7,1.2c0.4,0.1,0.7,0.1,1.1,0.2c0.2,0,0.4,0.1,0.6,0.1
			c0.1,0,0.2-0.2,0.3-0.2c0.1,0,0.3,0,0.4,0.1v0c0,0.1-0.2,0.2-0.2,0.2c0,0,0,0,0,0c-0.2,0.1-0.8,0.6-1.2,1c-0.5,0.6-1.5,1.5-1.5,2
			c0,0.5-0.2,0.9-0.2,1.9c0,0.5,0.2,2,0.3,3.4c0.1,1.5,0.3,2.9,0.3,3c0,0.2,0,0.5,0,0.6c0.1,0.2,0.3,0.2,0.7,0.2c0.1,0,1.4,0,3.1,0
			c4.1,0.1,10.9,0.1,10.9,0.1s7-0.1,11.1-0.2c1.6,0,2.8,0,2.9,0c0.4,0,0.6,0,0.7-0.2c0.1-0.2,0-0.4,0-0.6c0-0.1,0.3-2.7,0.4-4.5
			c0.1-0.8,0.1-1.5,0.1-1.8C69.3,41,69.1,40.7,69,40.2z M65.5,36.8c-0.2,0-8.1-0.4-11.6-0.4c-3.5-0.1-11.4,0.4-11.7,0.4
			c-0.2,0,2.9-4.9,2.9-4.9l8.8-0.3l8.7,0.3C62.6,31.9,65.7,36.8,65.5,36.8z"/>
		<path class="st7" d="M61.8,40.7v3.6c0,0,0,0,0,0.1H45.9c0,0,0,0,0-0.1v-3.6c0,0,0,0,0-0.1L61.8,40.7
			C61.8,40.7,61.8,40.7,61.8,40.7z"/>
		<path class="st8" d="M61.8,40.7v3.6c0,0,0,0,0,0.1H45.9c0,0,0,0,0-0.1v-3.6c0,0,0,0,0-0.1L61.8,40.7
			C61.8,40.7,61.8,40.7,61.8,40.7z"/>
		<path class="st9" d="M44.4,41.1c0,0.4-0.2,1.9-0.5,2.2c-0.5,0.5-1.6,0.4-2.2,0.4c-0.8,0-1.6-0.1-2.4-0.1c-0.1-0.7-0.1-1.4-0.1-1.6
			c0-0.9,0.1-1.3,0.2-1.7c1,0,2,0,2.9,0C42.9,40.3,44.4,40.1,44.4,41.1z"/>
		<path class="st10" d="M63.3,41.1c0,0.4,0.2,1.9,0.5,2.2c0.5,0.5,1.6,0.4,2.2,0.4c0.8,0,1.6-0.1,2.4-0.1c0.1-0.7,0.1-1.4,0.1-1.6
			c0-0.9-0.1-1.3-0.2-1.7c-1,0-2,0-2.9,0C64.9,40.3,63.3,40.1,63.3,41.1z"/>
		<path class="st11" d="M68.6,49c-0.1,0.2-0.3,0.2-0.7,0.2c-0.1,0-1.3,0-2.9,0c-4.1,0.1-11.1,0.2-11.1,0.2s-6.8-0.1-10.9-0.1
			c-1.7,0-3,0-3.1,0c-0.4,0-0.6,0-0.7-0.2c-0.1-0.2,0-0.4,0-0.6c0-0.1-0.2-1.5-0.3-3l0-0.2H69c-0.1,1.5-0.3,3.1-0.3,3.2
			C68.6,48.6,68.7,48.8,68.6,49z"/>
		<path class="st12" d="M43.5,47.4c0,0.2-0.2,0.3-0.4,0.3h-3.5c-0.2,0-0.3-0.2-0.3-0.3v-0.9c0-0.2,0.2-0.4,0.3-0.4h3.5
			c0.2,0,0.4,0.2,0.4,0.4V47.4z"/>
		<path class="st13" d="M68.3,47.4c0,0.2-0.2,0.3-0.4,0.3h-3.5c-0.2,0-0.4-0.2-0.4-0.3v-0.9c0-0.2,0.2-0.4,0.4-0.4H68
			c0.2,0,0.4,0.2,0.4,0.4V47.4z"/>
		<path class="st14" d="M55.4,32.1L51.7,36c-0.2,0-0.5,0-0.7,0c-1,0-2.3,0-3.6,0.1l3.8-3.8l0.7,0L55.4,32.1z"/>
		<path class="st14" d="M49.8,32.3l-3.8,3.8c-1,0-2,0.1-2.8,0.1l3.7-3.8L49.8,32.3z"/>
		<path class="st2" d="M61.8,40.3H45.9c-0.2,0-0.3,0.2-0.3,0.4v3.6c0,0.2,0.1,0.4,0.3,0.4h15.9c0.2,0,0.3-0.2,0.3-0.4v-3.6
			C62.1,40.5,62,40.3,61.8,40.3z M61.8,44.3C61.8,44.4,61.8,44.4,61.8,44.3l-15.8,0.1c0,0,0,0,0-0.1v-0.3h15.9V44.3z M61.8,43.7
			H45.9v-0.4h15.9V43.7z M61.8,43.1H45.9v-0.4h15.9V43.1z M61.8,42.4H45.9V42h15.9V42.4z M61.8,41.7H45.9v-0.4h15.9V41.7z M61.8,41
			H45.9v-0.3c0,0,0,0,0-0.1h15.8c0,0,0,0,0,0.1V41z"/>
	</g>
	<g class="st15">
		<path class="st16" d="M56,37.6c-0.4,0.5-0.3,1.4-1.2,1.3c-0.3-0.5-0.7-1.2-1.2-2c0,0,0,0,0,0c-0.4-0.6-0.7-1.2-1.1-1.7
			c-0.2-0.3-0.4-0.6-0.6-0.9c0.4,0,0.8,0.1,1.2,0.2c0.7,0.3,1.3,0.7,1.9,1.5c0.2,0.3,0.3,0.5,0.5,0.8c0,0,0,0,0,0
			C55.7,37.1,55.9,37.4,56,37.6z"/>
	</g>
	<g class="st15">
		<path class="st16" d="M60.9,49.5c-0.3,0-0.5,0-0.8,0c-0.4,0-0.8,0-1.2,0h-0.2c0-0.2,0-0.3,0-0.5c0-0.1,0-0.3,0-0.4
			c0-0.1,0-0.3,0-0.4c0-0.1,0-0.3,0-0.4c0.1-0.9,0.2-1.7,0.2-2.1c0-0.1,0-0.2,0-0.2c0-0.2,0-0.3,0-0.4c0-0.1,0-0.2,0-0.3
			c0-0.1,0-0.2-0.1-0.3c0-0.1,0-0.2-0.1-0.3c0-0.1,0-0.2-0.1-0.3c0-0.1,0-0.1,0-0.2c0,0,0-0.1,0-0.1c0-0.1-0.1-0.2-0.2-0.3
			c-0.1-0.1-0.1-0.2-0.2-0.3c-0.1-0.1-0.2-0.2-0.3-0.3c-0.1-0.1-0.2-0.2-0.3-0.3c-0.1-0.1-0.2-0.2-0.3-0.3c-0.1-0.1-0.2-0.2-0.3-0.3
			c0,0-0.1-0.1-0.1-0.1c-0.1-0.1-0.2-0.2-0.3-0.3c-0.1-0.1-0.3-0.2-0.4-0.3c-0.3-0.3-0.6-0.5-0.8-0.6c-0.2-0.1-0.2-0.1-0.3-0.2
			c0.2,0,0.3-0.1,0.5-0.1c0.1,0,0.2,0.2,0.3,0.2c0.2,0,0.5-0.1,0.7-0.1c0.4-0.1,0.8-0.1,1.3-0.2c0.2-0.1,0.4-0.2,0.5-0.3
			c0.6,0.4,1,0.8,1.2,1.3c0.1,0.1,0.1,0.2,0.2,0.3c0,0.1,0.1,0.3,0.1,0.4c0,0.1,0.1,0.2,0.1,0.3c0,0.1,0,0.2,0,0.3
			c0,0.1,0,0.2,0,0.3c0,0.1,0,0.2,0,0.3V43c0,0.1,0,0.2,0,0.3c0,0.1,0,0.2,0,0.3c0,0.1,0,0.2,0,0.3c0,0.1,0,0.2,0,0.3
			c0,0.1,0,0.1,0,0.2c0,0,0,0.1,0,0.1c0,0.1,0.1,0.2,0.1,0.3c0,0.2,0.1,0.3,0.2,0.4c0.1,0.3,0.2,0.6,0.3,1
			C61,47.4,61,48.5,60.9,49.5z"/>
	</g>
	<g>
		<path class="st17" d="M43.7,32h-8.1c-0.3,0-0.4-0.3-0.3-0.6l0.5-1.7c0.1-0.3,0.4-0.6,0.7-0.6h6.2c0.3,0,0.6,0.3,0.7,0.6l0.5,1.7
			C44.1,31.7,43.9,32,43.7,32z"/>
		<g>
			<rect x="41.1" y="30.4" class="st3" width="0.9" height="0.9"/>
			<rect x="40.1" y="29.5" class="st3" width="0.9" height="0.9"/>
			<rect x="39.2" y="30.4" class="st3" width="0.9" height="0.9"/>
			<rect x="38.3" y="29.5" class="st3" width="0.9" height="0.9"/>
			<rect x="37.3" y="30.4" class="st3" width="0.9" height="0.9"/>
		</g>
		<path class="st18" d="M54.6,39.6c-0.3,0-10.4-0.6-14.9-0.5C35.1,39,25,39.6,24.7,39.6c-0.3,0,3.7-6.3,3.7-6.3l11.2-0.4l11.2,0.4
			C50.8,33.3,54.9,39.6,54.6,39.6z"/>
		<path class="st5" d="M25.7,55.5l0,2.9c0,0.2-0.2,0.4-0.4,0.4l-4.6,0c-0.2,0-0.4-0.2-0.4-0.4l0-7.9c0.2,1.9,0.4,3.7,0.4,3.8
			c0,0.3-0.1,0.6,0.1,0.8c0.1,0.2,0.4,0.3,0.9,0.3C21.8,55.5,23.4,55.5,25.7,55.5z"/>
		<path class="st5" d="M59.2,48.8l0,9.6c0,0.2-0.2,0.4-0.4,0.4l-4.6,0c-0.2,0-0.4-0.2-0.4-0.4l0-2.9c2.1,0,3.6-0.1,3.7-0.1
			c0.5,0,0.8-0.1,0.9-0.3c0.1-0.2,0-0.6,0.1-0.8c0-0.2,0.3-3.4,0.5-5.8C59.2,48.6,59.2,48.7,59.2,48.8z"/>
		<path class="st19" d="M59.1,43.9c0-0.6-1.5-2-2-2.4c-0.3-0.3-1.3-1.1-1.6-1.3c-0.2-0.1-0.2-0.1-0.3-0.2c0.2,0,0.4-0.1,0.5-0.1
			c0.2,0.1,0.2,0.2,0.4,0.3c0.2,0,0.5-0.1,0.7-0.1c0.5-0.1,0.9-0.1,1.4-0.2c0.7-0.2,1-0.9,0.9-1.5c0-0.6-0.7-0.8-1.2-0.9
			c-0.5-0.1-1.2-0.3-1.7,0c-0.7,0.4-0.4,1.8-1.5,1.6c-0.9-1.6-3.4-5.4-3.6-5.6c-0.2-0.2-0.8-0.7-1.6-0.9c-0.8-0.1-8.5-0.5-10-0.5
			c-1.5,0-9.2,0.4-10,0.6c-0.8,0.1-1.3,0.6-1.6,0.9c-0.2,0.2-2.7,4.1-3.6,5.6c0,0,0,0,0,0c-1.1,0.2-0.8-1.1-1.5-1.6
			c-0.5-0.3-1.2-0.1-1.7,0c-0.5,0.1-1.2,0.3-1.2,0.9c0,0.7,0.2,1.4,0.9,1.5c0.5,0.1,0.9,0.2,1.4,0.2c0.2,0,0.5,0.1,0.7,0.1
			c0.2,0,0.2-0.2,0.4-0.3c0.2,0,0.4,0,0.5,0.1v0c0,0.1-0.2,0.2-0.3,0.3c0,0,0,0,0,0c-0.2,0.1-1.1,0.7-1.6,1.2
			c-0.7,0.7-1.9,1.9-2,2.5c0,0.6-0.3,1.1-0.2,2.4c0,0.6,0.2,2.5,0.4,4.3c0.2,1.9,0.3,3.7,0.4,3.8c0,0.3-0.1,0.6,0.1,0.8
			c0.1,0.2,0.4,0.3,0.9,0.3c0.2,0,1.8,0,4,0c5.3,0.1,14,0.2,14,0.2s9-0.1,14.2-0.2c2.1,0,3.6-0.1,3.7-0.1c0.5,0,0.8-0.1,0.9-0.3
			c0.1-0.2,0-0.6,0.1-0.8c0-0.2,0.3-3.4,0.5-5.8c0.1-1,0.2-1.9,0.2-2.3C59.4,44.9,59.1,44.5,59.1,43.9z M54.6,39.6
			c-0.3,0-10.4-0.6-14.9-0.5C35.1,39,25,39.6,24.7,39.6c-0.3,0,3.7-6.3,3.7-6.3l11.2-0.4l11.2,0.4C50.8,33.3,54.9,39.6,54.6,39.6z"
			/>
		<path class="st7" d="M49.8,44.6v4.6c0,0,0,0.1,0,0.1H29.5c0,0,0,0,0-0.1v-4.6c0,0,0-0.1,0-0.1L49.8,44.6
			C49.8,44.5,49.8,44.5,49.8,44.6z"/>
		<path class="st8" d="M49.8,44.6v4.6c0,0,0,0.1,0,0.1H29.5c0,0,0,0,0-0.1v-4.6c0,0,0-0.1,0-0.1L49.8,44.6
			C49.8,44.5,49.8,44.5,49.8,44.6z"/>
		<path class="st9" d="M27.6,45.1c0,0.5-0.2,2.5-0.6,2.9c-0.6,0.6-2.1,0.6-2.9,0.6c-1,0-2.1-0.1-3.1-0.1c-0.1-1-0.2-1.7-0.2-2.1
			c-0.1-1.2,0.2-1.7,0.2-2.2c1.2,0,2.5,0,3.7,0C25.6,44.1,27.6,43.8,27.6,45.1z"/>
		<path class="st20" d="M51.8,45.1c0,0.5,0.2,2.5,0.6,2.9c0.6,0.6,2.1,0.6,2.9,0.6c1.1,0,2.1-0.1,3.1-0.1c0.1-1,0.2-1.7,0.2-2.1
			c0.1-1.2-0.2-1.7-0.2-2.2c-1.2,0-2.5,0-3.7,0C53.8,44.1,51.8,43.8,51.8,45.1z"/>
		<path class="st11" d="M58.6,55.2c-0.1,0.2-0.4,0.3-0.9,0.3c-0.1,0-1.7,0-3.8,0.1c-5.3,0.1-14.2,0.2-14.2,0.2s-8.7-0.1-14-0.2
			c-2.2,0-3.8,0-4,0c-0.5,0-0.8-0.1-0.9-0.3c-0.1-0.2,0-0.5-0.1-0.8c0-0.1-0.2-1.9-0.4-3.8l0-0.3H59c-0.2,2-0.4,3.9-0.4,4.1
			C58.6,54.6,58.7,54.9,58.6,55.2z"/>
		<path class="st12" d="M26.4,53.1c0,0.2-0.2,0.4-0.4,0.4h-4.4c-0.2,0-0.4-0.2-0.4-0.4V52c0-0.2,0.2-0.5,0.4-0.5H26
			c0.2,0,0.4,0.2,0.4,0.5V53.1z"/>
		<path class="st21" d="M58.2,53.1c0,0.2-0.2,0.4-0.4,0.4h-4.4c-0.2,0-0.4-0.2-0.4-0.4V52c0-0.2,0.2-0.5,0.4-0.5h4.4
			c0.2,0,0.4,0.2,0.4,0.5V53.1z"/>
		<path class="st14" d="M41.6,33.6l-4.7,4.9c-0.3,0-0.6,0-0.9,0c-1.3,0-3,0-4.6,0.1l4.8-4.8l1,0L41.6,33.6z"/>
		<path class="st14" d="M34.5,33.8l-4.8,4.8c-1.3,0-2.5,0.1-3.6,0.1l4.8-4.8L34.5,33.8z"/>
		<path class="st2" d="M49.8,44H29.5c-0.2,0-0.4,0.2-0.4,0.5v4.6c0,0.3,0.2,0.5,0.4,0.5h20.4c0.2,0,0.4-0.2,0.4-0.5v-4.6
			C50.2,44.3,50.1,44,49.8,44z M49.8,49.2C49.8,49.2,49.8,49.2,49.8,49.2l-20.3,0.1c0,0,0,0,0-0.1v-0.3h20.3V49.2z M49.8,48.4H29.5
			V48h20.3V48.4z M49.8,47.6H29.5v-0.5h20.3V47.6z M49.8,46.7H29.5v-0.5h20.3V46.7z M49.8,45.8H29.5v-0.5h20.3V45.8z M49.8,45H29.5
			v-0.4c0,0,0-0.1,0-0.1h20.3c0,0,0,0,0,0.1V45z"/>
	</g>
	<g class="st22">
		<path class="st16" d="M49.4,55.6c-0.3,0-0.7,0-1,0c-0.5,0-1.1,0-1.6,0h-0.3c0-0.2,0-0.4,0.1-0.6c0-0.2,0-0.4,0.1-0.6
			c0-0.2,0-0.4,0.1-0.6c0-0.2,0-0.4,0-0.5c0.1-1.2,0.2-2.3,0.2-2.7c0-0.1,0-0.2,0-0.3c0-0.2,0-0.4,0-0.6c0-0.2,0-0.3,0-0.4
			c0-0.1,0-0.3-0.1-0.4c0-0.1-0.1-0.3-0.1-0.4c0-0.2-0.1-0.3-0.1-0.5c0-0.1,0-0.2,0-0.2c0-0.1,0-0.1,0-0.2c0-0.1-0.1-0.3-0.2-0.5
			c-0.1-0.1-0.2-0.3-0.3-0.4c-0.1-0.1-0.2-0.3-0.4-0.4c-0.1-0.1-0.3-0.3-0.4-0.4c-0.2-0.2-0.3-0.3-0.5-0.5c-0.2-0.2-0.3-0.3-0.4-0.4
			c-0.1-0.1-0.1-0.1-0.1-0.1c-0.1-0.1-0.2-0.2-0.4-0.4c-0.2-0.1-0.3-0.3-0.5-0.4c-0.4-0.3-0.8-0.7-1-0.8C42.1,43.1,42,43.1,42,43
			c0.2-0.1,0.4-0.2,0.6-0.1c0.2,0.1,0.2,0.3,0.4,0.3c0.3,0,0.6-0.1,0.9-0.1c0.5-0.1,1.1-0.2,1.7-0.3c0.3-0.1,0.5-0.2,0.7-0.4
			c0.7,0.5,1.3,1,1.6,1.7c0.1,0.1,0.2,0.3,0.2,0.4c0.1,0.2,0.1,0.3,0.2,0.5c0,0.1,0.1,0.3,0.1,0.4c0,0.1,0.1,0.3,0.1,0.5
			c0,0.1,0,0.3,0,0.4c0,0.1,0,0.3,0,0.4v0.4c0,0.2,0,0.3,0,0.5c0,0.1,0,0.3,0,0.4c0,0.1,0,0.3,0,0.5c0,0.1,0,0.3,0,0.4
			c0,0.1,0,0.2,0,0.3c0,0.1,0,0.1,0,0.2c0,0.2,0.1,0.3,0.1,0.4c0.1,0.2,0.1,0.4,0.2,0.6c0.2,0.4,0.3,0.8,0.4,1.4
			C49.4,52.8,49.5,54.3,49.4,55.6z"/>
	</g>
	<g class="st22">
		<path class="st16" d="M43,40c-0.5,0.6-0.4,1.8-1.5,1.6c-0.4-0.6-0.9-1.6-1.5-2.6c0,0,0,0,0,0c-0.5-0.8-1-1.5-1.4-2.2
			c-0.3-0.4-0.6-0.8-0.8-1.2c0.6,0,1.1,0.1,1.6,0.3c0.9,0.3,1.7,1,2.4,2c0.2,0.3,0.4,0.7,0.6,1.1c0,0,0,0,0,0
			C42.5,39.4,42.7,39.7,43,40z"/>
	</g>
	<g>
		<path class="st23" d="M28.2,33.6h-9.6c-0.3,0-0.5-0.3-0.3-0.7l0.6-2c0.1-0.4,0.5-0.7,0.8-0.7h7.3c0.3,0,0.7,0.3,0.8,0.7l0.7,2
			C28.7,33.3,28.5,33.6,28.2,33.6z"/>
		<g>
			<rect x="25.1" y="31.8" class="st3" width="1.1" height="1.1"/>
			<rect x="24" y="30.6" class="st3" width="1.1" height="1.1"/>
			<rect x="22.9" y="31.8" class="st3" width="1.1" height="1.1"/>
			<rect x="21.8" y="30.6" class="st3" width="1.1" height="1.1"/>
			<rect x="20.7" y="31.8" class="st3" width="1.1" height="1.1"/>
		</g>
		<path class="st24" d="M41.2,42.6c-0.3,0-12.3-0.7-17.7-0.5C18,42,6,42.7,5.7,42.7c-0.4,0,4.4-7.5,4.4-7.5l13.3-0.5l13.3,0.4
			C36.7,35.2,41.5,42.6,41.2,42.6z"/>
		<path class="st5" d="M6.8,61.7l0,3.4c0,0.2-0.2,0.4-0.4,0.4l-5.5,0c-0.2,0-0.4-0.2-0.4-0.4l0-9.4c0.2,2.2,0.4,4.4,0.4,4.5
			c0,0.3-0.1,0.7,0.1,1c0.2,0.3,0.5,0.4,1.1,0.4C2.2,61.6,4.2,61.6,6.8,61.7z"/>
		<path class="st5" d="M46.7,53.6l0,11.4c0,0.2-0.2,0.4-0.4,0.4l-5.5,0c-0.2,0-0.4-0.2-0.4-0.4l0-3.4c2.5,0,4.3-0.1,4.5-0.1
			c0.6,0,0.9-0.1,1.1-0.4c0.1-0.3,0-0.7,0.1-1c0-0.2,0.4-4.1,0.6-6.9C46.7,53.4,46.7,53.5,46.7,53.6z"/>
		<path class="st25" d="M46.5,47.8c0-0.8-1.8-2.4-2.3-2.9c-0.3-0.3-1.5-1.3-1.9-1.6C42.1,43.1,42,43.1,42,43
			c0.2-0.1,0.4-0.2,0.6-0.1c0.2,0.1,0.2,0.2,0.4,0.3c0.3,0.1,0.6-0.1,0.9-0.1c0.5-0.1,1.1-0.2,1.7-0.3c0.9-0.2,1.2-1,1.1-1.8
			c-0.1-0.8-0.8-1-1.4-1.1c-0.6-0.1-1.5-0.4-2,0c-0.8,0.5-0.5,2.1-1.8,1.9c-1-1.8-4-6.4-4.3-6.7c-0.3-0.3-0.9-0.9-1.9-1
			c-0.9-0.2-10.2-0.6-11.9-0.6c-1.7,0-11,0.5-11.9,0.7c-0.9,0.2-1.6,0.7-1.9,1c-0.2,0.3-3.2,4.9-4.2,6.7c0,0,0,0,0,0
			c-1.3,0.2-0.9-1.4-1.8-1.9c-0.6-0.3-1.4-0.1-2,0C1,40,0.2,40.2,0.1,41c-0.1,0.8,0.3,1.6,1.1,1.8c0.5,0.1,1.1,0.2,1.7,0.3
			c0.2,0,0.6,0.2,0.9,0.1C4,43.2,4.1,43,4.2,42.9c0.2-0.1,0.4,0,0.6,0.1v0c0,0.1-0.3,0.3-0.4,0.3c0,0,0,0,0,0
			c-0.3,0.2-1.3,0.9-1.8,1.5c-0.8,0.9-2.3,2.2-2.3,3c0,0.8-0.4,1.3-0.3,2.8c0,0.7,0.2,3,0.4,5.1c0.2,2.2,0.4,4.4,0.4,4.5
			c0,0.3-0.1,0.7,0.1,1c0.1,0.3,0.5,0.4,1.1,0.4c0.2,0,2.1,0,4.8,0.1c6.3,0.1,16.6,0.2,16.6,0.2s10.7-0.2,16.9-0.2
			c2.5,0,4.3-0.1,4.5-0.1c0.6,0,0.9-0.1,1.1-0.4c0.1-0.3,0-0.7,0.1-1c0-0.2,0.4-4.1,0.6-6.9c0.1-1.2,0.2-2.3,0.2-2.7
			C46.9,49.1,46.6,48.5,46.5,47.8z M41.1,42.6c-0.3,0-12.3-0.7-17.7-0.6C18,42,6,42.7,5.7,42.7c-0.4,0,4.4-7.5,4.4-7.5l13.3-0.5
			l13.3,0.4C36.7,35.2,41.5,42.6,41.1,42.6z"/>
		<path class="st7" d="M35.5,48.6v5.5c0,0,0,0.1,0,0.1H11.4c0,0,0-0.1,0-0.1v-5.5c0,0,0-0.1,0-0.1L35.5,48.6
			C35.5,48.5,35.5,48.5,35.5,48.6z"/>
		<path class="st8" d="M35.5,48.6v5.5c0,0,0,0.1,0,0.1H11.4c0,0,0-0.1,0-0.1v-5.5c0,0,0-0.1,0-0.1L35.5,48.6
			C35.5,48.5,35.5,48.5,35.5,48.6z"/>
		<path class="st9" d="M9.1,49.2c0,0.6-0.3,2.9-0.8,3.4c-0.7,0.8-2.4,0.7-3.4,0.7c-1.2,0-2.5-0.1-3.7-0.1C1.1,52,1.1,51,1,50.6
			c-0.1-1.4,0.2-2,0.3-2.6c1.5,0,3-0.1,4.4,0C6.7,48,9.1,47.7,9.1,49.2z"/>
		<path class="st9" d="M37.8,49.2c0,0.6,0.3,2.9,0.8,3.4c0.7,0.8,2.4,0.7,3.4,0.7c1.2,0,2.5-0.1,3.7-0.1c0.1-1.1,0.2-2.1,0.2-2.5
			c0.1-1.4-0.2-2-0.3-2.6c-1.5,0-3-0.1-4.4,0C40.2,48,37.9,47.7,37.8,49.2z"/>
		<path class="st11" d="M45.9,61.2c-0.1,0.3-0.5,0.4-1.1,0.4c-0.2,0-2,0-4.5,0.1c-6.3,0.1-16.9,0.2-16.9,0.2s-10.3-0.1-16.6-0.2
			c-2.6,0-4.6-0.1-4.8-0.1c-0.6,0-0.9-0.1-1.1-0.4c-0.1-0.3,0-0.7-0.1-1c0-0.2-0.2-2.3-0.4-4.5l0-0.3h46C46.2,57.7,46,60,46,60.2
			C45.9,60.5,46,60.9,45.9,61.2z"/>
		<path class="st12" d="M7.7,58.8c0,0.3-0.2,0.5-0.5,0.5H1.9c-0.3,0-0.5-0.2-0.5-0.5v-1.4c0-0.3,0.2-0.5,0.5-0.5h5.3
			c0.3,0,0.5,0.2,0.5,0.5V58.8z"/>
		<path class="st12" d="M45.5,58.8c0,0.3-0.2,0.5-0.5,0.5h-5.3c-0.3,0-0.5-0.2-0.5-0.5v-1.4c0-0.3,0.2-0.5,0.5-0.5h5.3
			c0.3,0,0.5,0.2,0.5,0.5V58.8z"/>
		<path class="st14" d="M25.7,35.5l-5.5,5.8c-0.3,0-0.7,0-1.1,0c-1.6,0-3.5,0-5.4,0.1l5.7-5.7l1.1,0L25.7,35.5z"/>
		<path class="st14" d="M17.3,35.8l-5.7,5.7c-1.5,0.1-3,0.1-4.3,0.2L13,36L17.3,35.8z"/>
		<path class="st2" d="M35.5,48H11.3c-0.3,0-0.5,0.3-0.5,0.6v5.5c0,0.3,0.2,0.6,0.5,0.6h24.2c0.3,0,0.5-0.3,0.5-0.6v-5.5
			C36,48.2,35.8,48,35.5,48z M35.5,54.1C35.5,54.1,35.5,54.2,35.5,54.1l-24.1,0.1c0,0,0,0,0-0.1v-0.4h24.1V54.1z M35.5,53.2H11.4
			v-0.5h24.1V53.2z M35.5,52.2H11.4v-0.5h24.1V52.2z M35.5,51.1H11.4v-0.5h24.1V51.1z M35.5,50.1H11.4v-0.5h24.1V50.1z M35.5,49.1
			H11.4v-0.5c0,0,0-0.1,0-0.1h24.1c0,0,0,0.1,0,0.1V49.1z"/>
		<path class="st26" d="M23.7,47c-0.2,0-0.4,0-0.6,0h-0.6l0,0C4.8,47,5.9,45.3,8.1,43.4c0.8,0,2-0.1,3.3-0.1
			c3.8-0.1,9.2-0.2,12.3-0.2c2.8,0,7.5,0.1,11.2,0.2c1.2,0,2.3,0.1,3.1,0.1C40.2,45.3,41.5,47,23.7,47z"/>
	</g>
	<g>
		<path class="st23" d="M61.5,16.6c-16.3-2.2-32.6,2.1-49,0c1.5-3.8,0.7-8.3-0.3-12.2c2.2,0.5,4.5,0.5,6.5,0.6
			c14.1,0.4,28-2.5,42.1-0.8C59.9,8.3,60.2,12.7,61.5,16.6z"/>
		<g>
			<path class="st27" d="M18.2,8.9c-0.4,0-0.6,0-1.1-0.1c0-0.4,0-0.6,0-1C18.4,7.9,19,7.9,20.2,8c0,0.4,0,0.6,0,1
				c-0.4,0-0.6,0-1.1,0c0,2.3,0,3.4,0,5.6c-0.4,0-0.6,0-1-0.1C18.2,12.3,18.2,11.1,18.2,8.9z"/>
			<path class="st27" d="M21.4,13.1c-0.1,0.6-0.1,0.9-0.2,1.5c-0.4,0-0.6,0-1,0c0.5-2.6,0.7-4,1.1-6.6c0.5,0,0.8,0,1.4,0
				c0.4,2.7,0.7,4,1.1,6.6c-0.4,0-0.6,0-1.1,0c-0.1-0.6-0.1-0.9-0.2-1.5C22,13.1,21.8,13.1,21.4,13.1z M21.9,9.5
				c-0.1,1-0.2,1.6-0.4,2.6c0.3,0,0.4,0,0.7,0C22.2,11.1,22.1,10.6,21.9,9.5z"/>
			<path class="st27" d="M28.1,14.5c-0.4,0-0.6,0-1.1,0c-0.3-0.8-0.5-1.2-0.8-2.1c-0.3,0.9-0.5,1.3-0.8,2.1c-0.4,0-0.6,0-1.1,0
				c0.5-1.3,0.8-2,1.3-3.4c-0.5-1.3-0.8-2-1.3-3.3c0.4,0,0.7,0,1.1,0c0.3,0.8,0.4,1.2,0.7,2c0.3-0.8,0.4-1.2,0.7-2.1
				c0.4,0,0.7,0,1.1-0.1c-0.5,1.3-0.8,2-1.3,3.4C27.3,12.5,27.6,13.2,28.1,14.5z"/>
			<path class="st27" d="M30,14.4c-0.4,0-0.6,0-1,0.1c0-2.7,0-4,0-6.6c0.4,0,0.6,0,1-0.1C30,10.4,30,11.7,30,14.4z"/>
			<path class="st27" d="M34.6,12.4c0,0.5-0.1,0.9-0.4,1.2c-0.2,0.2-0.4,0.4-0.7,0.5c-0.2,0.1-0.3,0.1-0.6,0.1c-0.4,0-0.7,0-1-0.2
				c-0.2-0.1-0.4-0.3-0.5-0.6c-0.1-0.3-0.2-0.6-0.2-0.9c0.4-0.1,0.6-0.1,1-0.1c0,0.4,0.1,0.7,0.3,0.8c0.1,0.1,0.3,0.2,0.4,0.2
				c0.2,0,0.4-0.1,0.5-0.4c0.1-0.1,0.1-0.3,0.1-0.4c0-0.3-0.1-0.6-0.4-0.8c-0.2-0.2-0.5-0.4-0.9-0.8c-0.3-0.3-0.6-0.6-0.7-0.8
				c-0.1-0.3-0.2-0.6-0.2-0.9c0-0.6,0.2-1.1,0.6-1.4c0.2-0.2,0.6-0.3,0.9-0.4c0.4,0,0.7,0,0.9,0.2c0.2,0.1,0.4,0.3,0.5,0.5
				c0.1,0.2,0.2,0.5,0.2,0.8c-0.4,0.1-0.6,0.2-1,0.3c0-0.3-0.1-0.5-0.2-0.6c-0.1-0.1-0.2-0.1-0.4-0.1c-0.2,0-0.3,0.1-0.4,0.3
				c-0.1,0.1-0.1,0.3-0.1,0.5c0,0.3,0.1,0.6,0.4,0.9c0.1,0.1,0.2,0.2,0.4,0.4c0.2,0.2,0.4,0.3,0.5,0.4c0.2,0.2,0.4,0.5,0.6,0.7
				c0.1,0.1,0.1,0.2,0.2,0.3C34.6,12,34.6,12.2,34.6,12.4z"/>
			<path class="st27" d="M36.4,8.3c-0.4,0-0.6,0.1-1.1,0.1c0-0.4,0-0.6,0-1c1.2-0.1,1.9-0.2,3.1-0.3c0,0.4,0,0.6,0,1
				c-0.4,0-0.6,0.1-1.1,0.1c0,2.3,0,3.4,0,5.6c-0.4,0-0.6,0-1,0.1C36.4,11.6,36.4,10.5,36.4,8.3z"/>
			<path class="st27" d="M39.6,12.1c-0.1,0.6-0.1,0.9-0.2,1.5c-0.4,0-0.6,0-1,0.1c0.5-2.7,0.7-4,1.1-6.7C40,7,40.3,7,40.9,6.9
				c0.4,2.6,0.7,3.9,1.1,6.6c-0.4,0-0.6,0-1.1,0.1c-0.1-0.6-0.1-0.9-0.2-1.5C40.3,12.1,40.1,12.1,39.6,12.1z M40.2,8.5
				c-0.1,1.1-0.2,1.6-0.4,2.6c0.3,0,0.4,0,0.7-0.1C40.4,10,40.3,9.5,40.2,8.5z"/>
			<path class="st27" d="M42.9,7.8c-0.4,0-0.6,0-1.1,0.1c0-0.4,0-0.6,0-1c1.2-0.1,1.9-0.1,3.1-0.2c0,0.4,0,0.6,0,1
				c-0.4,0-0.6,0-1.1,0.1c0,2.3,0,3.4,0,5.6c-0.4,0-0.6,0-1,0.1C42.9,11.1,42.9,10,42.9,7.8z"/>
			<path class="st27" d="M46.8,13.2c-0.4,0-0.6,0-1,0c0-2.7,0-4,0-6.6c0.4,0,0.6,0,1,0C46.8,9.2,46.8,10.5,46.8,13.2z"/>
			<path class="st27" d="M49.3,6.4c0.4,0,0.8,0.1,1.1,0.5c0.3,0.3,0.5,0.7,0.5,1.1c0,1.4,0,2.2,0,3.6c0,0.4-0.2,0.8-0.5,1.1
				c-0.3,0.3-0.7,0.5-1.1,0.5c-0.4,0-0.8-0.1-1.1-0.4c-0.3-0.3-0.5-0.7-0.5-1.1c0-1.4,0-2.2,0-3.6c0-0.4,0.2-0.8,0.5-1.1
				C48.5,6.6,48.8,6.4,49.3,6.4z M49.8,7.9c0-0.2-0.1-0.3-0.2-0.4c-0.1-0.1-0.2-0.2-0.4-0.2c-0.2,0-0.3,0.1-0.4,0.2
				c-0.1,0.1-0.2,0.3-0.2,0.4c0,1.5,0,2.2,0,3.6c0,0.2,0.1,0.3,0.2,0.4c0.1,0.1,0.2,0.2,0.4,0.2c0.2,0,0.3-0.1,0.4-0.2
				c0.1-0.1,0.2-0.2,0.2-0.4C49.8,10.1,49.8,9.4,49.8,7.9z"/>
			<path class="st27" d="M52.9,6.5c0.5,1.8,0.8,2.7,1.3,4.5c0-1.8,0-2.7,0-4.5c0.4,0,0.6,0,1,0c0,2.7,0,4,0,6.6c-0.4,0-0.6,0-1.1,0
				c-0.5-1.7-0.8-2.6-1.4-4.3c0,1.7,0,2.6,0,4.3c-0.4,0-0.6,0-1,0c0-2.7,0-4,0-6.6C52.2,6.5,52.4,6.5,52.9,6.5z"/>
		</g>
	</g>
	<g class="st28">
		<path class="st16" d="M45.2,3.9c-6.1,2.2-11.8,6.5-18.4,6C22.7,9.6,19.6,7.5,16.7,5c0.7,0,1.4,0.1,2,0.1
			C27.6,5.3,36.4,4.3,45.2,3.9z"/>
	</g>
	<g class="st28">
		<path class="st16" d="M61.5,16.6c-5.9-0.8-11.8-0.7-17.7-0.4c0.5-0.3,1-0.5,1.4-0.8c2.2-1.3,4.7-2.8,7.3-3.2
			c2.7-0.5,5.5,0.3,8.1,0.9C60.9,14.3,61.2,15.5,61.5,16.6z"/>
	</g>
</g>
</svg>
