<?xml version="1.0" encoding="utf-8"?>
<!-- Generator: Adobe Illustrator 23.0.2, SVG Export Plug-In . SVG Version: 6.00 Build 0)  -->
<svg version="1.1" id="Layer_1" xmlns="http://www.w3.org/2000/svg" xmlns:xlink="http://www.w3.org/1999/xlink" x="0px" y="0px"
	 viewBox="0 0 66.7 64.8" style="enable-background:new 0 0 66.7 64.8;" xml:space="preserve">
<style type="text/css">
	.st0{fill:#FFCF00;}
	.st1{opacity:0.59;fill:#E4CABC;}
	.st2{fill:#FFED00;}
	.st3{fill:#4D4D4D;}
	.st4{fill:#F2F2F2;}
	.st5{fill:#C2A100;}
	.st6{fill:#F9F121;}
	.st7{fill:#FFF000;}
	.st8{fill:#E0CA00;}
	.st9{fill:#FFF700;}
</style>
<g>
	<path class="st0" d="M66.7,60.9c0,2.1-1.7,3.8-3.8,3.8H3.8c-2.1,0-3.8-1.7-3.8-3.8V29.4c0-2.1,1.7-3.8,3.8-3.8h59.1
		c2.1,0,3.8,1.7,3.8,3.8V60.9z"/>
	<path class="st1" d="M65.2,61.2v-1.9c-0.6,0.5-1.4,0.8-2.3,0.8H3.8c-0.9,0-1.7-0.3-2.3-0.8v1.9c0,1.3,1,2.3,2.3,2.3h59.1
		C64.2,63.5,65.2,62.4,65.2,61.2z"/>
	<path class="st2" d="M64.8,28.8v1.9c-0.6-0.5-1.4-0.8-2.3-0.8H3.4c-0.9,0-1.7,0.3-2.3,0.8v-1.9c0-1.3,1-2.3,2.3-2.3h59.1
		C63.8,26.5,64.8,27.6,64.8,28.8z"/>
	<rect x="5.1" y="31.6" class="st3" width="12" height="17.2"/>
	<rect x="18.9" y="31.6" class="st3" width="12" height="17.2"/>
	<rect x="34.3" y="31.6" class="st3" width="12" height="17.2"/>
	<rect x="48.2" y="31.6" class="st3" width="12" height="17.2"/>
	<path class="st4" d="M10.5,47.6V36.2H8.6v-1.6c0.5-0.1,1-0.3,1.5-0.6c0.5-0.3,0.8-0.8,1-1.2h1.6v14.8H10.5z"/>
	<path class="st4" d="M24.1,34.9v3.2c0.2-0.3,0.5-0.6,0.9-0.7c0.2-0.1,0.5-0.1,0.7-0.1c1,0,1.7,0.3,2.2,1c0.4,0.6,0.6,1.4,0.6,2.5
		V44c0,1.1-0.3,2-1,2.7c-0.7,0.7-1.5,1-2.5,1c-1,0-1.8-0.4-2.4-1.1c-0.6-0.7-0.9-1.5-0.9-2.5v-0.4l2.1-0.2l0,0.5
		c0.1,0.6,0.3,1,0.7,1.2c0.1,0.1,0.3,0.1,0.4,0.1c0.9,0,1.4-0.5,1.4-1.4v-3.6c0-0.4-0.2-0.8-0.5-1.1c-0.2-0.1-0.4-0.2-0.6-0.2
		c-0.4,0-0.7,0.2-0.9,0.5c-0.2,0.3-0.2,0.6-0.2,0.9v0.4h-2.2v-8.1h6.5v2.3H24.1z"/>
	<path class="st4" d="M44,44.2c0,1-0.3,1.8-1,2.5c-0.7,0.7-1.5,1-2.5,1h-0.2c-1,0-1.8-0.3-2.5-1c-0.7-0.7-1-1.5-1-2.5v-1.3
		c0-0.9,0.3-1.7,0.9-2.4c0.3-0.3,0.6-0.5,0.9-0.7c-0.6-0.3-1.1-0.8-1.4-1.5c-0.2-0.4-0.2-0.8-0.2-1.4V36c0-1,0.3-1.8,0.9-2.4
		c0.6-0.7,1.5-1.1,2.5-1.1h0.2c1,0,1.9,0.4,2.5,1.1c0.6,0.6,0.9,1.4,0.9,2.4v0.8c0,0.9-0.3,1.7-0.8,2.3c-0.2,0.3-0.5,0.5-0.8,0.6
		c0.7,0.4,1.2,0.9,1.5,1.7c0.2,0.4,0.3,0.9,0.3,1.4V44.2z M41.8,36.7c0-1-0.3-1.7-1-1.9c-0.1-0.1-0.3-0.1-0.5-0.1
		c-0.4,0-0.7,0.1-0.9,0.3c-0.2,0.2-0.3,0.4-0.4,0.7c-0.1,0.3-0.1,0.6-0.1,1c0,0.6,0.1,1.1,0.3,1.4c0.2,0.4,0.6,0.6,1.2,0.6
		c0.5,0,0.9-0.2,1.2-0.6C41.7,37.7,41.8,37.2,41.8,36.7z M41.7,43.2c0-0.9-0.2-1.5-0.6-1.8c-0.2-0.1-0.5-0.2-0.8-0.2
		c-0.6,0-1,0.3-1.2,0.8c-0.1,0.3-0.2,0.7-0.2,1.2v0.7c0,0.5,0.1,0.9,0.4,1.2c0.3,0.3,0.6,0.4,0.9,0.4c0.6,0,1-0.3,1.3-0.9
		c0.1-0.2,0.1-0.4,0.1-0.7V43.2z"/>
	<path class="st4" d="M57,34c-0.5-0.7-1.2-1-2.2-1c-0.3,0-0.5,0-0.8,0.1c-0.4,0.2-0.7,0.4-0.9,0.7v-2.3h-2.2v5h2.2v-0.4
		c0-0.3,0.1-0.6,0.2-0.9c0.2-0.3,0.5-0.5,0.9-0.5c0.3,0,0.5,0.1,0.6,0.2c0.3,0.3,0.5,0.6,0.5,1.1v3.6c0,1-0.5,1.4-1.4,1.4
		c-0.1,0-0.3,0-0.4-0.1c-0.4-0.2-0.7-0.6-0.7-1.2l0-0.5l-2.1,0.2v0.4c0,1,0.3,1.8,0.9,2.5c0.6,0.7,1.5,1.1,2.4,1.1
		c1,0,1.9-0.3,2.5-1c0.7-0.7,1-1.6,1-2.7v-3.2C57.6,35.5,57.4,34.6,57,34z"/>
	<path class="st4" d="M56.6,46.8c-0.6-0.7-1.5-1.1-2.4-1.1c-0.5,0-0.9,0.1-1.4,0.3c-0.7,0.3-1.1,0.7-1.5,1.3
		c-0.3,0.5-0.4,0.9-0.5,1.5H53c0-0.2,0.1-0.3,0.2-0.5c0.2-0.3,0.5-0.4,0.8-0.4c0.4,0,0.6,0.1,0.8,0.4c0.1,0.1,0.2,0.3,0.2,0.5h2.4
		C57.4,48,57.1,47.4,56.6,46.8z"/>
	<path class="st3" d="M15.8,56.7c0,2.8-2.3,5.1-5.1,5.1c-2.8,0-5.1-2.3-5.1-5.1c0-2.8,2.3-5.1,5.1-5.1
		C13.5,51.6,15.8,53.9,15.8,56.7z"/>
	<path class="st2" d="M14.9,56.7c0,2.3-1.9,4.1-4.1,4.1c-2.3,0-4.1-1.9-4.1-4.1c0-2.3,1.9-4.1,4.1-4.1C13,52.6,14.9,54.5,14.9,56.7z
		"/>
	<path class="st3" d="M27.7,56.7c0,2.8-2.3,5.1-5.1,5.1c-2.8,0-5.1-2.3-5.1-5.1c0-2.8,2.3-5.1,5.1-5.1
		C25.4,51.6,27.7,53.9,27.7,56.7z"/>
	<path class="st2" d="M26.7,56.7c0,2.3-1.9,4.1-4.1,4.1c-2.3,0-4.1-1.9-4.1-4.1c0-2.3,1.9-4.1,4.1-4.1
		C24.9,52.6,26.7,54.5,26.7,56.7z"/>
	<rect x="39.7" y="52.1" class="st3" width="20.4" height="9.2"/>
	<g>
		<path class="st4" d="M42.6,57.3v2.8h-1v-6.6h1v2.8h1.2v-2.8h1v6.6h-1v-2.8H42.6z"/>
		<path class="st4" d="M46.6,60.1h-1v-6.6h1V60.1z"/>
		<path class="st4" d="M49.1,53.5c0.6,0,1,0.2,1.2,0.5c0.2,0.3,0.3,0.6,0.3,1.1v1c0,0.5-0.2,0.9-0.5,1.2l0.7,2.9h-1.1l-0.6-2.5
			c0,0-0.1,0-0.1,0h-0.6v2.5h-1v-6.6H49.1z M49.7,55.1c0-0.4-0.2-0.6-0.6-0.6h-0.6v2.1h0.6c0.2,0,0.3-0.1,0.4-0.2
			c0.1-0.1,0.2-0.2,0.2-0.4V55.1z"/>
		<path class="st4" d="M51.7,60.1v-6.6h2.8v1h-1.8v1.8h1.3v1h-1.3v1.8h1.8v1H51.7z"/>
		<path class="st4" d="M58.4,58.5c0,0.4-0.2,0.8-0.5,1.1c-0.3,0.3-0.7,0.5-1.1,0.5h-1.6v-6.6h1.6c0.4,0,0.8,0.2,1.1,0.5
			c0.3,0.3,0.5,0.7,0.5,1.1V58.5z M56.3,59.1h0.6c0.2,0,0.3-0.1,0.4-0.2c0.1-0.1,0.2-0.2,0.2-0.4v-3.5c0-0.2-0.1-0.3-0.2-0.4
			c-0.1-0.1-0.2-0.2-0.4-0.2h-0.6V59.1z"/>
	</g>
	<g>
		<path class="st5" d="M62,23.6c-1.6,3.7-4.4,6-7.6,6.7c-0.5,0.1-1,0.2-1.5,0.2h-2.4c0.4,0,0.7,0,1.1-0.1c0.2,0,0.4-0.1,0.6-0.1
			c3.2-0.6,6-3,7.6-6.7c2.6-6.1,0.5-13.6-4.6-16.7c-1.1-0.7-2.3-1.1-3.5-1.3c-0.4,0-0.7-0.1-1.1-0.1h2.2c1.6,0,3.2,0.4,4.7,1.3
			C62.5,10,64.6,17.4,62,23.6z"/>
		<path class="st6" d="M53.8,20.5c0,0.8-0.2,1.5-0.7,2c-0.3,0.4-0.8,0.7-1.3,0.8c-0.1,0-0.3,0.1-0.5,0.1l0,1.2h-1.4l0-1.2
			c-0.4-0.1-0.8-0.2-1.1-0.4c-0.4-0.3-0.8-0.6-1-1.1c-0.2-0.5-0.4-1-0.4-1.6l1.8-0.1c0.1,0.7,0.3,1.1,0.6,1.4
			c0.2,0.2,0.5,0.3,0.8,0.3c0.4,0,0.8-0.2,1-0.6c0.1-0.2,0.2-0.4,0.2-0.8c0-0.5-0.2-0.9-0.7-1.4c-0.4-0.3-1-0.8-1.7-1.4
			c-0.6-0.5-1.1-1-1.4-1.5c-0.3-0.5-0.4-1-0.4-1.6c0-1,0.4-1.8,1.2-2.3c0.3-0.2,0.7-0.4,1.1-0.4v-1.2l1.4,0l0,1.2
			c0.4,0.1,0.8,0.2,1.1,0.3c0.4,0.2,0.7,0.5,0.9,0.9c0.2,0.4,0.4,0.8,0.4,1.3l-1.8,0.3c-0.1-0.5-0.2-0.8-0.5-1.1
			c-0.2-0.2-0.4-0.3-0.8-0.3c-0.3,0-0.6,0.1-0.8,0.4c-0.1,0.2-0.2,0.5-0.2,0.8c0,0.5,0.3,1,0.8,1.6c0.2,0.2,0.5,0.4,0.9,0.7
			c0.5,0.3,0.8,0.6,0.9,0.7c0.5,0.4,0.8,0.8,1.1,1.2c0.1,0.2,0.2,0.4,0.3,0.5C53.7,19.9,53.8,20.2,53.8,20.5z"/>
		<path class="st7" d="M55.2,6.9c-1.1-0.7-2.3-1.1-3.5-1.3c-0.4,0-0.7-0.1-1.1-0.1h0c-3.8,0-7.4,2.5-9.3,6.9
			c-2.6,6.1-0.5,13.6,4.6,16.7c1,0.6,2,1,3.1,1.2c0.5,0.1,1,0.1,1.6,0.1h0c0.4,0,0.7,0,1.1-0.1c0.2,0,0.4-0.1,0.6-0.1
			c3.2-0.6,6-3,7.6-6.7C62.3,17.4,60.3,10,55.2,6.9z M51.1,28.2c-1.5,0.1-3-0.2-4.4-1.1c-1.1-0.6-2-1.5-2.7-2.6
			c-2.1-3-2.7-7.4-1.1-11.2c0.3-0.7,0.7-1.4,1.1-2c0,0,0,0,0,0c1.8-2.5,4.5-3.8,7.2-3.6c0,0,0,0,0,0c1.1,0.1,2.2,0.4,3.2,1.1
			c4.2,2.5,5.9,8.7,3.8,13.8C56.8,25.9,54,28,51.1,28.2L51.1,28.2z"/>
		<path class="st6" d="M53.8,20.5c0,0.8-0.2,1.5-0.7,2c-0.3,0.4-0.8,0.7-1.3,0.8c-0.1,0-0.3,0.1-0.5,0.1l0,1.2h-1.4l0-1.2
			c-0.4-0.1-0.8-0.2-1.1-0.4c-0.4-0.3-0.8-0.6-1-1.1c-0.2-0.5-0.4-1-0.4-1.6l1.8-0.1c0.1,0.7,0.3,1.1,0.6,1.4
			c0.2,0.2,0.5,0.3,0.8,0.3c0.4,0,0.8-0.2,1-0.6c0.1-0.2,0.2-0.4,0.2-0.8c0-0.5-0.2-0.9-0.7-1.4c-0.4-0.3-1-0.8-1.7-1.4
			c-0.6-0.5-1.1-1-1.4-1.5c-0.3-0.5-0.4-1-0.4-1.6c0-1,0.4-1.8,1.2-2.3c0.3-0.2,0.7-0.4,1.1-0.4v-1.2l1.4,0l0,1.2
			c0.4,0.1,0.8,0.2,1.1,0.3c0.4,0.2,0.7,0.5,0.9,0.9c0.2,0.4,0.4,0.8,0.4,1.3l-1.8,0.3c-0.1-0.5-0.2-0.8-0.5-1.1
			c-0.2-0.2-0.4-0.3-0.8-0.3c-0.3,0-0.6,0.1-0.8,0.4c-0.1,0.2-0.2,0.5-0.2,0.8c0,0.5,0.3,1,0.8,1.6c0.2,0.2,0.5,0.4,0.9,0.7
			c0.5,0.3,0.8,0.6,0.9,0.7c0.5,0.4,0.8,0.8,1.1,1.2c0.1,0.2,0.2,0.4,0.3,0.5C53.7,19.9,53.8,20.2,53.8,20.5z"/>
		<path class="st6" d="M54.3,8.8c-1-0.6-2.1-1-3.2-1.1c-2.3,0.2-4.5,1.5-6,3.6c0,0,0,0,0,0c-0.4,0.6-0.8,1.3-1.1,2
			c-1.6,3.8-1,8.2,1.1,11.2c0.7,1,1.6,1.9,2.7,2.6c1,0.6,2.2,1,3.3,1.1c2.9-0.3,5.7-2.3,7.1-5.6C60.3,17.5,58.6,11.3,54.3,8.8z
			 M53.1,22.6c-0.3,0.4-0.8,0.7-1.3,0.8c-0.1,0-0.3,0.1-0.5,0.1l0,1.2h-1.4l0-1.2c-0.4-0.1-0.8-0.2-1.1-0.4c-0.4-0.3-0.8-0.6-1-1.1
			c-0.2-0.5-0.4-1-0.4-1.6l1.8-0.1c0.1,0.7,0.3,1.1,0.6,1.4c0.2,0.2,0.5,0.3,0.8,0.3c0.4,0,0.8-0.2,1-0.6c0.1-0.2,0.2-0.4,0.2-0.8
			c0-0.5-0.2-0.9-0.7-1.4c-0.4-0.3-1-0.8-1.7-1.4c-0.6-0.5-1.1-1-1.4-1.5c-0.3-0.5-0.4-1-0.4-1.6c0-1,0.4-1.8,1.2-2.3
			c0.3-0.2,0.7-0.4,1.1-0.4v-1.2l1.4,0l0,1.2c0.4,0.1,0.8,0.2,1.1,0.3c0.4,0.2,0.7,0.5,0.9,0.9c0.2,0.4,0.4,0.8,0.4,1.3l-1.8,0.3
			c-0.1-0.5-0.2-0.8-0.5-1.1c-0.2-0.2-0.4-0.3-0.8-0.3c-0.3,0-0.6,0.1-0.8,0.4c-0.1,0.2-0.2,0.5-0.2,0.8c0,0.5,0.3,1,0.8,1.6
			c0.2,0.2,0.5,0.4,0.9,0.7c0.5,0.3,0.8,0.6,0.9,0.7c0.5,0.4,0.8,0.8,1.1,1.2c0.1,0.2,0.2,0.4,0.3,0.5c0.2,0.4,0.3,0.8,0.3,1.1
			C53.8,21.3,53.6,22,53.1,22.6z"/>
		<path class="st5" d="M47.8,27.1c1,0.6,2.2,1,3.3,1.1c-1.5,0.1-3-0.2-4.4-1.1c-1.1-0.6-2-1.5-2.7-2.6c-2.1-3-2.7-7.4-1.1-11.2
			c0.3-0.7,0.7-1.4,1.1-2c0,0,0,0,0,0c1.8-2.5,4.5-3.8,7.2-3.6c-2.3,0.2-4.5,1.5-6,3.6c0,0,0,0,0,0c-0.4,0.6-0.8,1.3-1.1,2
			c-1.6,3.8-1,8.2,1.1,11.2C45.9,25.6,46.8,26.5,47.8,27.1z"/>
		<path class="st6" d="M53.8,20.5c0,0.8-0.2,1.5-0.7,2c-0.3,0.4-0.8,0.7-1.3,0.8c-0.1,0-0.3,0.1-0.5,0.1l0,1.2h-1.4l0-1.2
			c-0.4-0.1-0.8-0.2-1.1-0.4c-0.4-0.3-0.8-0.6-1-1.1c-0.2-0.5-0.4-1-0.4-1.6l1.8-0.1c0.1,0.7,0.3,1.1,0.6,1.4
			c0.2,0.2,0.5,0.3,0.8,0.3c0.4,0,0.8-0.2,1-0.6c0.1-0.2,0.2-0.4,0.2-0.8c0-0.5-0.2-0.9-0.7-1.4c-0.4-0.3-1-0.8-1.7-1.4
			c-0.6-0.5-1.1-1-1.4-1.5c-0.3-0.5-0.4-1-0.4-1.6c0-1,0.4-1.8,1.2-2.3c0.3-0.2,0.7-0.4,1.1-0.4v-1.2l1.4,0l0,1.2
			c0.4,0.1,0.8,0.2,1.1,0.3c0.4,0.2,0.7,0.5,0.9,0.9c0.2,0.4,0.4,0.8,0.4,1.3l-1.8,0.3c-0.1-0.5-0.2-0.8-0.5-1.1
			c-0.2-0.2-0.4-0.3-0.8-0.3c-0.3,0-0.6,0.1-0.8,0.4c-0.1,0.2-0.2,0.5-0.2,0.8c0,0.5,0.3,1,0.8,1.6c0.2,0.2,0.5,0.4,0.9,0.7
			c0.5,0.3,0.8,0.6,0.9,0.7c0.5,0.4,0.8,0.8,1.1,1.2c0.1,0.2,0.2,0.4,0.3,0.5C53.7,19.9,53.8,20.2,53.8,20.5z"/>
		<path class="st8" d="M58.2,22.6c-1.4,3.3-4.1,5.4-7.1,5.6h0c-1.1-0.1-2.2-0.4-3.2-1.1c-1.1-0.6-2-1.5-2.7-2.6
			c-2.1-3-2.7-7.4-1.1-11.2c0.3-0.7,0.7-1.4,1.1-2c0,0,0,0,0,0c1.5-2.1,3.7-3.4,6-3.6c0,0,0,0,0,0c1.1,0.1,2.2,0.4,3.2,1.1
			C58.6,11.3,60.3,17.5,58.2,22.6z"/>
		<path class="st9" d="M53.8,20.5c0,0.8-0.2,1.5-0.7,2c-0.3,0.4-0.8,0.7-1.3,0.8c-0.1,0-0.3,0.1-0.5,0.1l0,1.2h-1.4l0-1.2
			c-0.4-0.1-0.8-0.2-1.1-0.4c-0.4-0.3-0.8-0.6-1-1.1c-0.2-0.5-0.4-1-0.4-1.6l1.8-0.1c0.1,0.7,0.3,1.1,0.6,1.4
			c0.2,0.2,0.5,0.3,0.8,0.3c0.4,0,0.8-0.2,1-0.6c0.1-0.2,0.2-0.4,0.2-0.8c0-0.5-0.2-0.9-0.7-1.4c-0.4-0.3-1-0.8-1.7-1.4
			c-0.6-0.5-1.1-1-1.4-1.5c-0.3-0.5-0.4-1-0.4-1.6c0-1,0.4-1.8,1.2-2.3c0.3-0.2,0.7-0.4,1.1-0.4v-1.2l1.4,0l0,1.2
			c0.4,0.1,0.8,0.2,1.1,0.3c0.4,0.2,0.7,0.5,0.9,0.9c0.2,0.4,0.4,0.8,0.4,1.3l-1.8,0.3c-0.1-0.5-0.2-0.8-0.5-1.1
			c-0.2-0.2-0.4-0.3-0.8-0.3c-0.3,0-0.6,0.1-0.8,0.4c-0.1,0.2-0.2,0.5-0.2,0.8c0,0.5,0.3,1,0.8,1.6c0.2,0.2,0.5,0.4,0.9,0.7
			c0.5,0.3,0.8,0.6,0.9,0.7c0.5,0.4,0.8,0.8,1.1,1.2c0.1,0.2,0.2,0.4,0.3,0.5C53.7,19.9,53.8,20.2,53.8,20.5z"/>
	</g>
	<g>
		<path class="st5" d="M35.4,13.7c-1.2,2.8-3.4,4.6-5.8,5.1c-0.4,0.1-0.8,0.1-1.2,0.1h-1.8c0.3,0,0.6,0,0.8-0.1c0.2,0,0.3,0,0.5-0.1
			c2.4-0.5,4.6-2.3,5.8-5.1C35.6,9,34.1,3.4,30.2,1c-0.9-0.5-1.8-0.8-2.7-1C27.2,0,26.9,0,26.6,0h1.7c1.2,0,2.4,0.3,3.5,1
			C35.8,3.4,37.3,9,35.4,13.7z"/>
		<path class="st6" d="M29.1,11.4c0,0.6-0.2,1.1-0.5,1.5c-0.2,0.3-0.6,0.5-1,0.6c-0.1,0-0.2,0.1-0.4,0.1l0,0.9h-1.1l0-0.9
			c-0.3-0.1-0.6-0.2-0.8-0.3c-0.3-0.2-0.6-0.5-0.8-0.8c-0.2-0.4-0.3-0.8-0.3-1.2l1.4-0.1c0.1,0.5,0.2,0.9,0.5,1.1
			c0.2,0.2,0.4,0.2,0.6,0.2c0.3,0,0.6-0.2,0.8-0.4c0.1-0.1,0.1-0.3,0.1-0.6c0-0.4-0.2-0.7-0.6-1.1c-0.3-0.2-0.7-0.6-1.3-1.1
			c-0.5-0.4-0.8-0.8-1-1.1c-0.2-0.4-0.3-0.8-0.3-1.2c0-0.8,0.3-1.4,0.9-1.8c0.2-0.2,0.5-0.3,0.8-0.3V4l1.1,0l0,0.9
			c0.3,0,0.6,0.1,0.8,0.3c0.3,0.2,0.5,0.4,0.7,0.7c0.2,0.3,0.3,0.6,0.3,1L27.6,7c0-0.4-0.2-0.6-0.3-0.8C27.2,6.1,27,6,26.7,6
			c-0.3,0-0.5,0.1-0.6,0.3C26,6.5,25.9,6.7,25.9,7c0,0.4,0.2,0.8,0.6,1.2c0.1,0.2,0.4,0.3,0.7,0.6c0.3,0.2,0.6,0.4,0.7,0.5
			c0.4,0.3,0.6,0.6,0.8,0.9c0.1,0.2,0.2,0.3,0.2,0.4C29,10.9,29.1,11.2,29.1,11.4z"/>
		<path class="st7" d="M30.2,1c-0.9-0.5-1.8-0.8-2.7-1C27.2,0,26.9,0,26.6,0h0c-2.9,0-5.7,1.9-7.1,5.2c-2,4.7-0.4,10.4,3.5,12.7
			c0.8,0.5,1.6,0.8,2.4,0.9c0.4,0.1,0.8,0.1,1.2,0.1h0c0.3,0,0.6,0,0.8-0.1c0.2,0,0.3,0,0.5-0.1c2.4-0.5,4.6-2.3,5.8-5.1
			C35.6,9,34.1,3.4,30.2,1z M27.1,17.3c-1.1,0.1-2.3-0.2-3.4-0.8c-0.8-0.5-1.5-1.2-2.1-2c-1.6-2.3-2-5.7-0.8-8.5
			c0.2-0.6,0.5-1.1,0.9-1.5c0,0,0,0,0,0C23,2.5,25,1.5,27.1,1.7c0,0,0,0,0,0c0.8,0.1,1.7,0.3,2.4,0.8c3.2,1.9,4.5,6.6,2.9,10.5
			C31.4,15.5,29.3,17.1,27.1,17.3L27.1,17.3z"/>
		<path class="st6" d="M29.1,11.4c0,0.6-0.2,1.1-0.5,1.5c-0.2,0.3-0.6,0.5-1,0.6c-0.1,0-0.2,0.1-0.4,0.1l0,0.9h-1.1l0-0.9
			c-0.3-0.1-0.6-0.2-0.8-0.3c-0.3-0.2-0.6-0.5-0.8-0.8c-0.2-0.4-0.3-0.8-0.3-1.2l1.4-0.1c0.1,0.5,0.2,0.9,0.5,1.1
			c0.2,0.2,0.4,0.2,0.6,0.2c0.3,0,0.6-0.2,0.8-0.4c0.1-0.1,0.1-0.3,0.1-0.6c0-0.4-0.2-0.7-0.6-1.1c-0.3-0.2-0.7-0.6-1.3-1.1
			c-0.5-0.4-0.8-0.8-1-1.1c-0.2-0.4-0.3-0.8-0.3-1.2c0-0.8,0.3-1.4,0.9-1.8c0.2-0.2,0.5-0.3,0.8-0.3V4l1.1,0l0,0.9
			c0.3,0,0.6,0.1,0.8,0.3c0.3,0.2,0.5,0.4,0.7,0.7c0.2,0.3,0.3,0.6,0.3,1L27.6,7c0-0.4-0.2-0.6-0.3-0.8C27.2,6.1,27,6,26.7,6
			c-0.3,0-0.5,0.1-0.6,0.3C26,6.5,25.9,6.7,25.9,7c0,0.4,0.2,0.8,0.6,1.2c0.1,0.2,0.4,0.3,0.7,0.6c0.3,0.2,0.6,0.4,0.7,0.5
			c0.4,0.3,0.6,0.6,0.8,0.9c0.1,0.2,0.2,0.3,0.2,0.4C29,10.9,29.1,11.2,29.1,11.4z"/>
		<path class="st6" d="M29.5,2.5c-0.8-0.5-1.6-0.7-2.5-0.8c-1.7,0.1-3.4,1.1-4.5,2.7c0,0,0,0,0,0c-0.3,0.5-0.6,1-0.9,1.5
			c-1.2,2.9-0.8,6.2,0.8,8.5c0.6,0.8,1.2,1.5,2.1,2c0.8,0.5,1.6,0.7,2.5,0.8c2.2-0.2,4.3-1.7,5.4-4.3C34.1,9.1,32.8,4.4,29.5,2.5z
			 M28.6,13c-0.2,0.3-0.6,0.5-1,0.6c-0.1,0-0.2,0.1-0.4,0.1l0,0.9h-1.1l0-0.9c-0.3-0.1-0.6-0.2-0.8-0.3c-0.3-0.2-0.6-0.5-0.8-0.8
			c-0.2-0.4-0.3-0.8-0.3-1.2l1.4-0.1c0.1,0.5,0.2,0.9,0.5,1.1c0.2,0.2,0.4,0.2,0.6,0.2c0.3,0,0.6-0.2,0.8-0.4
			c0.1-0.1,0.1-0.3,0.1-0.6c0-0.4-0.2-0.7-0.6-1.1c-0.3-0.2-0.7-0.6-1.3-1.1c-0.5-0.4-0.8-0.8-1-1.1c-0.2-0.4-0.3-0.8-0.3-1.2
			c0-0.8,0.3-1.4,0.9-1.8c0.2-0.2,0.5-0.3,0.8-0.3V4l1.1,0l0,0.9c0.3,0,0.6,0.1,0.8,0.3c0.3,0.2,0.5,0.4,0.7,0.7
			c0.2,0.3,0.3,0.6,0.3,1L27.6,7c0-0.4-0.2-0.6-0.3-0.8C27.2,6.1,27,6,26.7,6c-0.3,0-0.5,0.1-0.6,0.3C26,6.5,25.9,6.7,25.9,7
			c0,0.4,0.2,0.8,0.6,1.2c0.1,0.2,0.4,0.3,0.7,0.6c0.3,0.2,0.6,0.4,0.7,0.5c0.4,0.3,0.6,0.6,0.8,0.9c0.1,0.2,0.2,0.3,0.2,0.4
			c0.1,0.3,0.2,0.6,0.2,0.8C29.1,12,29,12.5,28.6,13z"/>
		<path class="st5" d="M24.6,16.4c0.8,0.5,1.6,0.7,2.5,0.8c-1.1,0.1-2.3-0.2-3.4-0.8c-0.8-0.5-1.5-1.2-2.1-2c-1.6-2.3-2-5.7-0.8-8.5
			c0.2-0.6,0.5-1.1,0.9-1.5c0,0,0,0,0,0C23,2.5,25,1.5,27.1,1.7c-1.7,0.1-3.4,1.1-4.5,2.7c0,0,0,0,0,0c-0.3,0.5-0.6,1-0.9,1.5
			c-1.2,2.9-0.8,6.2,0.8,8.5C23.1,15.3,23.8,16,24.6,16.4z"/>
		<path class="st6" d="M29.1,11.4c0,0.6-0.2,1.1-0.5,1.5c-0.2,0.3-0.6,0.5-1,0.6c-0.1,0-0.2,0.1-0.4,0.1l0,0.9h-1.1l0-0.9
			c-0.3-0.1-0.6-0.2-0.8-0.3c-0.3-0.2-0.6-0.5-0.8-0.8c-0.2-0.4-0.3-0.8-0.3-1.2l1.4-0.1c0.1,0.5,0.2,0.9,0.5,1.1
			c0.2,0.2,0.4,0.2,0.6,0.2c0.3,0,0.6-0.2,0.8-0.4c0.1-0.1,0.1-0.3,0.1-0.6c0-0.4-0.2-0.7-0.6-1.1c-0.3-0.2-0.7-0.6-1.3-1.1
			c-0.5-0.4-0.8-0.8-1-1.1c-0.2-0.4-0.3-0.8-0.3-1.2c0-0.8,0.3-1.4,0.9-1.8c0.2-0.2,0.5-0.3,0.8-0.3V4l1.1,0l0,0.9
			c0.3,0,0.6,0.1,0.8,0.3c0.3,0.2,0.5,0.4,0.7,0.7c0.2,0.3,0.3,0.6,0.3,1L27.6,7c0-0.4-0.2-0.6-0.3-0.8C27.2,6.1,27,6,26.7,6
			c-0.3,0-0.5,0.1-0.6,0.3C26,6.5,25.9,6.7,25.9,7c0,0.4,0.2,0.8,0.6,1.2c0.1,0.2,0.4,0.3,0.7,0.6c0.3,0.2,0.6,0.4,0.7,0.5
			c0.4,0.3,0.6,0.6,0.8,0.9c0.1,0.2,0.2,0.3,0.2,0.4C29,10.9,29.1,11.2,29.1,11.4z"/>
		<path class="st8" d="M32.4,13c-1.1,2.5-3.2,4.1-5.4,4.3h0c-0.8-0.1-1.7-0.3-2.5-0.8c-0.8-0.5-1.5-1.2-2.1-2
			c-1.6-2.3-2-5.7-0.8-8.5c0.2-0.6,0.5-1.1,0.9-1.5c0,0,0,0,0,0c1.2-1.6,2.8-2.6,4.5-2.7c0,0,0,0,0,0c0.8,0.1,1.7,0.3,2.4,0.8
			C32.8,4.4,34.1,9.1,32.4,13z"/>
		<path class="st9" d="M29.1,11.4c0,0.6-0.2,1.1-0.5,1.5c-0.2,0.3-0.6,0.5-1,0.6c-0.1,0-0.2,0.1-0.4,0.1l0,0.9h-1.1l0-0.9
			c-0.3-0.1-0.6-0.2-0.8-0.3c-0.3-0.2-0.6-0.5-0.8-0.8c-0.2-0.4-0.3-0.8-0.3-1.2l1.4-0.1c0.1,0.5,0.2,0.9,0.5,1.1
			c0.2,0.2,0.4,0.2,0.6,0.2c0.3,0,0.6-0.2,0.8-0.4c0.1-0.1,0.1-0.3,0.1-0.6c0-0.4-0.2-0.7-0.6-1.1c-0.3-0.2-0.7-0.6-1.3-1.1
			c-0.5-0.4-0.8-0.8-1-1.1c-0.2-0.4-0.3-0.8-0.3-1.2c0-0.8,0.3-1.4,0.9-1.8c0.2-0.2,0.5-0.3,0.8-0.3V4l1.1,0l0,0.9
			c0.3,0,0.6,0.1,0.8,0.3c0.3,0.2,0.5,0.4,0.7,0.7c0.2,0.3,0.3,0.6,0.3,1L27.6,7c0-0.4-0.2-0.6-0.3-0.8C27.2,6.1,27,6,26.7,6
			c-0.3,0-0.5,0.1-0.6,0.3C26,6.5,25.9,6.7,25.9,7c0,0.4,0.2,0.8,0.6,1.2c0.1,0.2,0.4,0.3,0.7,0.6c0.3,0.2,0.6,0.4,0.7,0.5
			c0.4,0.3,0.6,0.6,0.8,0.9c0.1,0.2,0.2,0.3,0.2,0.4C29,10.9,29.1,11.2,29.1,11.4z"/>
	</g>
	<g>
		<path class="st5" d="M14.2,16.5c-0.9,2.3-2.7,3.7-4.6,4.1c-0.3,0.1-0.6,0.1-0.9,0.1H7.1c0.2,0,0.4,0,0.7,0c0.1,0,0.2,0,0.4-0.1
			c1.9-0.4,3.7-1.8,4.6-4.1c1.6-3.8,0.3-8.3-2.8-10.2C9.3,5.9,8.5,5.6,7.8,5.5c-0.2,0-0.5,0-0.7,0h1.4c1,0,1.9,0.3,2.8,0.8
			C14.5,8.2,15.7,12.8,14.2,16.5z"/>
		<path class="st6" d="M9.1,14.7c0,0.5-0.1,0.9-0.4,1.2c-0.2,0.2-0.5,0.4-0.8,0.5c-0.1,0-0.2,0-0.3,0.1l0,0.7H6.8l0-0.7
			c-0.2,0-0.5-0.1-0.7-0.3c-0.3-0.2-0.5-0.4-0.6-0.7c-0.1-0.3-0.2-0.6-0.3-1l1.1-0.1c0.1,0.4,0.2,0.7,0.4,0.9
			c0.1,0.1,0.3,0.2,0.5,0.2c0.3,0,0.5-0.1,0.6-0.3c0.1-0.1,0.1-0.3,0.1-0.5c0-0.3-0.1-0.6-0.4-0.9c-0.2-0.2-0.6-0.5-1-0.9
			c-0.4-0.3-0.7-0.6-0.8-0.9c-0.2-0.3-0.3-0.6-0.3-1c0-0.6,0.2-1.1,0.7-1.4c0.2-0.1,0.4-0.2,0.7-0.3V8.7l0.8,0l0,0.7
			c0.2,0,0.5,0.1,0.7,0.2c0.2,0.1,0.4,0.3,0.6,0.5C8.9,10.4,9,10.7,9.1,11l-1.1,0.2c0-0.3-0.1-0.5-0.3-0.7c-0.1-0.1-0.3-0.2-0.5-0.2
			c-0.2,0-0.4,0.1-0.5,0.3c-0.1,0.1-0.1,0.3-0.1,0.5c0,0.3,0.2,0.6,0.5,1c0.1,0.1,0.3,0.3,0.5,0.4c0.3,0.2,0.5,0.3,0.5,0.4
			c0.3,0.3,0.5,0.5,0.7,0.8C8.8,13.8,8.9,13.9,9,14C9.1,14.3,9.1,14.5,9.1,14.7z"/>
		<path class="st7" d="M10,6.3C9.3,5.9,8.5,5.6,7.8,5.5c-0.2,0-0.5,0-0.7,0h0C4.8,5.5,2.6,7,1.4,9.7c-1.6,3.8-0.3,8.3,2.8,10.2
			c0.6,0.4,1.3,0.6,1.9,0.7c0.3,0.1,0.6,0.1,0.9,0.1h0c0.2,0,0.4,0,0.7,0c0.1,0,0.2,0,0.4-0.1c1.9-0.4,3.7-1.8,4.6-4.1
			C14.4,12.8,13.1,8.2,10,6.3z M7.5,19.4c-0.9,0.1-1.8-0.1-2.7-0.7c-0.7-0.4-1.2-0.9-1.7-1.6c-1.3-1.9-1.6-4.5-0.7-6.9
			C2.6,9.8,2.8,9.4,3.1,9c0,0,0,0,0,0c1.1-1.5,2.7-2.3,4.4-2.2c0,0,0,0,0,0c0.7,0.1,1.3,0.3,2,0.7c2.6,1.6,3.6,5.3,2.3,8.4
			C10.9,18,9.3,19.2,7.5,19.4L7.5,19.4z"/>
		<path class="st6" d="M9.1,14.7c0,0.5-0.1,0.9-0.4,1.2c-0.2,0.2-0.5,0.4-0.8,0.5c-0.1,0-0.2,0-0.3,0.1l0,0.7H6.8l0-0.7
			c-0.2,0-0.5-0.1-0.7-0.3c-0.3-0.2-0.5-0.4-0.6-0.7c-0.1-0.3-0.2-0.6-0.3-1l1.1-0.1c0.1,0.4,0.2,0.7,0.4,0.9
			c0.1,0.1,0.3,0.2,0.5,0.2c0.3,0,0.5-0.1,0.6-0.3c0.1-0.1,0.1-0.3,0.1-0.5c0-0.3-0.1-0.6-0.4-0.9c-0.2-0.2-0.6-0.5-1-0.9
			c-0.4-0.3-0.7-0.6-0.8-0.9c-0.2-0.3-0.3-0.6-0.3-1c0-0.6,0.2-1.1,0.7-1.4c0.2-0.1,0.4-0.2,0.7-0.3V8.7l0.8,0l0,0.7
			c0.2,0,0.5,0.1,0.7,0.2c0.2,0.1,0.4,0.3,0.6,0.5C8.9,10.4,9,10.7,9.1,11l-1.1,0.2c0-0.3-0.1-0.5-0.3-0.7c-0.1-0.1-0.3-0.2-0.5-0.2
			c-0.2,0-0.4,0.1-0.5,0.3c-0.1,0.1-0.1,0.3-0.1,0.5c0,0.3,0.2,0.6,0.5,1c0.1,0.1,0.3,0.3,0.5,0.4c0.3,0.2,0.5,0.3,0.5,0.4
			c0.3,0.3,0.5,0.5,0.7,0.8C8.8,13.8,8.9,13.9,9,14C9.1,14.3,9.1,14.5,9.1,14.7z"/>
		<path class="st6" d="M9.5,7.5c-0.6-0.4-1.3-0.6-2-0.7C6.1,7,4.8,7.7,3.8,9c0,0,0,0,0,0c-0.3,0.4-0.5,0.8-0.7,1.2
			c-1,2.3-0.6,5,0.7,6.9c0.4,0.6,1,1.2,1.7,1.6c0.6,0.4,1.3,0.6,2,0.7c1.8-0.2,3.5-1.4,4.3-3.4C13.1,12.8,12.1,9,9.5,7.5z M8.7,15.9
			c-0.2,0.2-0.5,0.4-0.8,0.5c-0.1,0-0.2,0-0.3,0.1l0,0.7H6.8l0-0.7c-0.2,0-0.5-0.1-0.7-0.3c-0.3-0.2-0.5-0.4-0.6-0.7
			c-0.1-0.3-0.2-0.6-0.3-1l1.1-0.1c0.1,0.4,0.2,0.7,0.4,0.9c0.1,0.1,0.3,0.2,0.5,0.2c0.3,0,0.5-0.1,0.6-0.3c0.1-0.1,0.1-0.3,0.1-0.5
			c0-0.3-0.1-0.6-0.4-0.9c-0.2-0.2-0.6-0.5-1-0.9c-0.4-0.3-0.7-0.6-0.8-0.9c-0.2-0.3-0.3-0.6-0.3-1c0-0.6,0.2-1.1,0.7-1.4
			c0.2-0.1,0.4-0.2,0.7-0.3V8.7l0.8,0l0,0.7c0.2,0,0.5,0.1,0.7,0.2c0.2,0.1,0.4,0.3,0.6,0.5C8.9,10.4,9,10.7,9.1,11l-1.1,0.2
			c0-0.3-0.1-0.5-0.3-0.7c-0.1-0.1-0.3-0.2-0.5-0.2c-0.2,0-0.4,0.1-0.5,0.3c-0.1,0.1-0.1,0.3-0.1,0.5c0,0.3,0.2,0.6,0.5,1
			c0.1,0.1,0.3,0.3,0.5,0.4c0.3,0.2,0.5,0.3,0.5,0.4c0.3,0.3,0.5,0.5,0.7,0.8C8.8,13.8,8.9,13.9,9,14c0.1,0.2,0.2,0.5,0.2,0.7
			C9.1,15.2,9,15.6,8.7,15.9z"/>
		<path class="st5" d="M5.5,18.7c0.6,0.4,1.3,0.6,2,0.7c-0.9,0.1-1.8-0.1-2.7-0.7c-0.7-0.4-1.2-0.9-1.7-1.6
			c-1.3-1.9-1.6-4.5-0.7-6.9C2.6,9.8,2.8,9.4,3.1,9c0,0,0,0,0,0c1.1-1.5,2.7-2.3,4.4-2.2C6.1,7,4.8,7.7,3.8,9c0,0,0,0,0,0
			c-0.3,0.4-0.5,0.8-0.7,1.2c-1,2.3-0.6,5,0.7,6.9C4.3,17.8,4.8,18.3,5.5,18.7z"/>
		<path class="st6" d="M9.1,14.7c0,0.5-0.1,0.9-0.4,1.2c-0.2,0.2-0.5,0.4-0.8,0.5c-0.1,0-0.2,0-0.3,0.1l0,0.7H6.8l0-0.7
			c-0.2,0-0.5-0.1-0.7-0.3c-0.3-0.2-0.5-0.4-0.6-0.7c-0.1-0.3-0.2-0.6-0.3-1l1.1-0.1c0.1,0.4,0.2,0.7,0.4,0.9
			c0.1,0.1,0.3,0.2,0.5,0.2c0.3,0,0.5-0.1,0.6-0.3c0.1-0.1,0.1-0.3,0.1-0.5c0-0.3-0.1-0.6-0.4-0.9c-0.2-0.2-0.6-0.5-1-0.9
			c-0.4-0.3-0.7-0.6-0.8-0.9c-0.2-0.3-0.3-0.6-0.3-1c0-0.6,0.2-1.1,0.7-1.4c0.2-0.1,0.4-0.2,0.7-0.3V8.7l0.8,0l0,0.7
			c0.2,0,0.5,0.1,0.7,0.2c0.2,0.1,0.4,0.3,0.6,0.5C8.9,10.4,9,10.7,9.1,11l-1.1,0.2c0-0.3-0.1-0.5-0.3-0.7c-0.1-0.1-0.3-0.2-0.5-0.2
			c-0.2,0-0.4,0.1-0.5,0.3c-0.1,0.1-0.1,0.3-0.1,0.5c0,0.3,0.2,0.6,0.5,1c0.1,0.1,0.3,0.3,0.5,0.4c0.3,0.2,0.5,0.3,0.5,0.4
			c0.3,0.3,0.5,0.5,0.7,0.8C8.8,13.8,8.9,13.9,9,14C9.1,14.3,9.1,14.5,9.1,14.7z"/>
		<path class="st8" d="M11.8,15.9c-0.9,2-2.5,3.3-4.3,3.4h0c-0.7-0.1-1.3-0.3-2-0.7c-0.7-0.4-1.2-0.9-1.7-1.6
			c-1.3-1.9-1.6-4.5-0.7-6.9C3.3,9.8,3.6,9.4,3.8,9c0,0,0,0,0,0C4.8,7.7,6.1,7,7.5,6.8c0,0,0,0,0,0c0.7,0.1,1.3,0.3,2,0.7
			C12.1,9,13.1,12.8,11.8,15.9z"/>
		<path class="st9" d="M9.1,14.7c0,0.5-0.1,0.9-0.4,1.2c-0.2,0.2-0.5,0.4-0.8,0.5c-0.1,0-0.2,0-0.3,0.1l0,0.7H6.8l0-0.7
			c-0.2,0-0.5-0.1-0.7-0.3c-0.3-0.2-0.5-0.4-0.6-0.7c-0.1-0.3-0.2-0.6-0.3-1l1.1-0.1c0.1,0.4,0.2,0.7,0.4,0.9
			c0.1,0.1,0.3,0.2,0.5,0.2c0.3,0,0.5-0.1,0.6-0.3c0.1-0.1,0.1-0.3,0.1-0.5c0-0.3-0.1-0.6-0.4-0.9c-0.2-0.2-0.6-0.5-1-0.9
			c-0.4-0.3-0.7-0.6-0.8-0.9c-0.2-0.3-0.3-0.6-0.3-1c0-0.6,0.2-1.1,0.7-1.4c0.2-0.1,0.4-0.2,0.7-0.3V8.7l0.8,0l0,0.7
			c0.2,0,0.5,0.1,0.7,0.2c0.2,0.1,0.4,0.3,0.6,0.5C8.9,10.4,9,10.7,9.1,11l-1.1,0.2c0-0.3-0.1-0.5-0.3-0.7c-0.1-0.1-0.3-0.2-0.5-0.2
			c-0.2,0-0.4,0.1-0.5,0.3c-0.1,0.1-0.1,0.3-0.1,0.5c0,0.3,0.2,0.6,0.5,1c0.1,0.1,0.3,0.3,0.5,0.4c0.3,0.2,0.5,0.3,0.5,0.4
			c0.3,0.3,0.5,0.5,0.7,0.8C8.8,13.8,8.9,13.9,9,14C9.1,14.3,9.1,14.5,9.1,14.7z"/>
	</g>
</g>
</svg>
