<?xml version="1.0" encoding="utf-8"?>
<!-- Generator: Adobe Illustrator 23.0.2, SVG Export Plug-In . SVG Version: 6.00 Build 0)  -->
<svg version="1.1" id="Layer_1" xmlns="http://www.w3.org/2000/svg" xmlns:xlink="http://www.w3.org/1999/xlink" x="0px" y="0px"
	 viewBox="0 0 217.6 217.6" style="enable-background:new 0 0 217.6 217.6;" xml:space="preserve">
<style type="text/css">
	.st0{fill:#91D9FA;}
	.st1{fill:#143757;}
	.st2{fill:#0D2338;}
	.st3{fill:#E3E3E3;}
	.st4{fill:#BABABA;}
	.st5{fill:#FCC5A3;}
	.st6{fill:#E6AB88;}
	.st7{fill:#DEA07C;}
	.st8{fill:none;stroke:#783E2C;stroke-width:2;stroke-linecap:round;stroke-linejoin:round;stroke-miterlimit:10;}
	.st9{fill:#633324;}
	.st10{fill:#4A261B;}
	.st11{fill:#783E2C;}
	.st12{fill:#663525;}
	.st13{fill:#FFFFFF;}
	.st14{fill:none;stroke:#783E2C;stroke-width:4;stroke-miterlimit:10;}
</style>
<g>
	
		<ellipse transform="matrix(0.1354 -0.9908 0.9908 0.1354 -13.7269 201.8405)" class="st0" cx="108.8" cy="108.8" rx="108.8" ry="108.8"/>
	<path class="st1" d="M108.8,217.6c21.8,0,42.1-6.4,59.1-17.5c-1-4.3-2.4-7.9-4.2-10.3c-8.8-11.9-55-22.4-55-22.4
		s-46.1,10.5-55,22.4c-1.8,2.4-3.1,6-4.2,10.3C66.7,211.1,87,217.6,108.8,217.6z"/>
	<path class="st2" d="M113.4,217.5c1.1,0,2.1-0.1,3.2-0.2c0.1,0,0.3,0,0.4,0c1.2-0.1,2.4-0.2,3.6-0.3c0.3,0,0.6-0.1,0.8-0.1
		c1-0.1,2-0.2,3-0.4c0.2,0,0.4-0.1,0.6-0.1c1.2-0.2,2.3-0.4,3.5-0.6c0.2,0,0.4-0.1,0.7-0.1c1-0.2,2-0.4,3-0.6c0.2,0,0.4-0.1,0.6-0.1
		c1.2-0.3,2.3-0.5,3.5-0.8c0.1,0,0.2-0.1,0.3-0.1c1.1-0.3,2.1-0.6,3.2-0.9c0.2-0.1,0.4-0.1,0.6-0.2c2.3-0.7,4.6-1.5,6.9-2.3
		c0.2-0.1,0.3-0.1,0.5-0.2c2.3-0.9,4.5-1.8,6.7-2.8c0.1-0.1,0.2-0.1,0.3-0.2c2.2-1,4.4-2.2,6.6-3.3c0.1,0,0.1-0.1,0.2-0.1
		c1.1-0.6,2.1-1.2,3.2-1.8c0,0,0,0,0,0c1.1-0.7,2.2-1.3,3.2-2c0,0,0,0,0,0c-0.5-2-1-3.8-1.7-5.4c-16.7,10.7-36.4,16.9-57.5,16.9
		c-21.1,0-40.8-6.2-57.5-16.9c-0.6,1.6-1.2,3.4-1.7,5.4c0,0,0,0,0,0c1.1,0.7,2.1,1.4,3.2,2c0,0,0,0,0,0c1,0.6,2.1,1.2,3.2,1.8
		c0.1,0,0.1,0.1,0.2,0.1c2.1,1.2,4.3,2.3,6.6,3.3c0.1,0.1,0.2,0.1,0.3,0.2c2.2,1,4.4,2,6.7,2.8c0.2,0.1,0.3,0.1,0.5,0.2
		c2.3,0.9,4.5,1.6,6.9,2.3c0.2,0.1,0.4,0.1,0.6,0.2c1.1,0.3,2.1,0.6,3.2,0.9c0.1,0,0.2,0.1,0.3,0.1c1.2,0.3,2.3,0.6,3.5,0.8
		c0.2,0,0.4,0.1,0.6,0.1c1,0.2,2,0.4,3,0.6c0.2,0,0.4,0.1,0.7,0.1c1.2,0.2,2.3,0.4,3.5,0.6c0.2,0,0.4,0.1,0.6,0.1c1,0.1,2,0.3,3,0.4
		c0.3,0,0.6,0.1,0.8,0.1c1.2,0.1,2.4,0.2,3.6,0.3c0.1,0,0.3,0,0.4,0c1.1,0.1,2.1,0.1,3.2,0.2c0.3,0,0.6,0,1,0c1.2,0,2.4,0.1,3.6,0.1
		c1.2,0,2.4,0,3.6-0.1C112.7,217.5,113,217.5,113.4,217.5z"/>
	<path class="st2" d="M92.8,171.2l-14.1,15.1l8.8,9.7l-8.8,7.4l7.6,11.7c2.7,0.6,5.5,1.1,8.4,1.4L92.8,171.2z"/>
	<path class="st2" d="M125.2,171.2l-1.8,45.4c2.8-0.4,5.6-0.9,8.4-1.5l7.6-11.6l-8.8-7.4l8.8-9.7L125.2,171.2z"/>
	<path class="st3" d="M92.8,171.2l0.8,45.3c5,0.7,10,1.1,15.2,1.1c5.2,0,10.3-0.4,15.3-1.1l0.8-45.3l-16-3.8L92.8,171.2z"/>
	<path class="st4" d="M113.1,217.5c1.1,0,2.1-0.1,3.2-0.2c0.1,0,0.2,0,0.3,0c2.5-0.2,5-0.4,7.5-0.8l0.1-7.3
		c-5,0.8-10.2,1.2-15.4,1.2c-5.2,0-10.3-0.4-15.3-1.2l0.1,7.3c2.4,0.3,4.9,0.6,7.4,0.8c0.1,0,0.2,0,0.3,0c1,0.1,2.1,0.1,3.1,0.2
		c0.3,0,0.5,0,0.8,0c1.2,0,2.3,0.1,3.5,0.1c1.2,0,2.4,0,3.5-0.1C112.6,217.5,112.8,217.5,113.1,217.5z"/>
	<path class="st4" d="M108.5,184c-3.3,0-5.9-0.1-5.9,2.7v0.4c0,2.1,0.7,6.1,3.2,6.9l-1,23.5c1.3,0,2.7,0.1,4,0.1
		c1.1,0,2.3,0,3.4-0.1l-1-23.5c2.5-0.8,3.2-4.8,3.2-6.9v-0.4C114.4,183.9,111.8,184,108.5,184z"/>
	<g>
		<path class="st4" d="M93.6,216.5c0.2,0,0.4,0,0.6,0.1l-0.8-45.3l15.4-3.8l-16,3.8L93.6,216.5z"/>
		<path class="st4" d="M108.8,167.4l15.4,3.8l-0.7,45.3c0.2,0,0.4,0,0.6-0.1l0.8-45.3L108.8,167.4z"/>
	</g>
	<polygon class="st4" points="124.7,178.2 124.8,171.7 123.6,170.9 120.3,170.2 108.7,184.5 97.2,170.2 93.8,171 92.8,171.6 
		92.9,178.6 102.4,191.6 108.7,184.8 114.9,191.6 	"/>
	<path class="st2" d="M113.6,188.2c0,2.8-2.3,5.1-5.1,5.1l0,0c-2.8,0-5.1-2.3-5.1-5.1V188c0-2.8,2.3-5.1,5.1-5.1l0,0
		c2.8,0,5.1,2.3,5.1,5.1V188.2z"/>
	<polygon class="st5" points="121.6,175.5 108.8,182.9 96,175.5 97.8,145.3 119.7,145.3 	"/>
	<polygon class="st6" points="108.7,180.3 96.7,166.5 96,175.5 108.8,182.9 121.6,175.5 120.9,166.5 	"/>
	<g>
		<g>
			<g>
				<path class="st5" d="M74.2,110.7c0,9.9-6.2,17.9-13.9,17.9c-7.7,0-13.9-8-13.9-17.9c0-9.9,6.2-17.9,13.9-17.9
					C68,92.8,74.2,100.8,74.2,110.7z"/>
				<path class="st6" d="M71.3,110.7c0,7.8-4.9,14.1-10.9,14.1c-6,0-10.9-6.3-10.9-14.1c0-7.8,4.9-14.1,10.9-14.1
					C66.4,96.6,71.3,102.9,71.3,110.7z"/>
				<path class="st7" d="M52.4,111.7c0-7.2,4.5-13.1,10.1-13.1c2.2,0,4.3,0.9,5.9,2.5c-2-2.8-4.9-4.6-8.1-4.6
					c-6,0-10.9,6.3-10.9,14.1c0,7.8,4.9,14.1,10.9,14.1c0.4,0,0.7,0,1.1-0.1C56.3,124.1,52.4,118.5,52.4,111.7z"/>
			</g>
			<g>
				<path class="st5" d="M143.3,110.7c0,9.9,6.2,17.9,13.9,17.9c7.7,0,13.9-8,13.9-17.9c0-9.9-6.2-17.9-13.9-17.9
					C149.5,92.8,143.3,100.8,143.3,110.7z"/>
				<path class="st6" d="M146.2,110.7c0,7.8,4.9,14.1,10.9,14.1c6,0,10.9-6.3,10.9-14.1c0-7.8-4.9-14.1-10.9-14.1
					C151.1,96.6,146.2,102.9,146.2,110.7z"/>
				<path class="st7" d="M165.2,111.7c0-7.2-4.5-13.1-10.1-13.1c-2.2,0-4.3,0.9-6,2.5c2-2.8,4.9-4.6,8.1-4.6c6,0,10.9,6.3,10.9,14.1
					c0,7.8-4.9,14.1-10.9,14.1c-0.4,0-0.7,0-1.1-0.1C161.2,124.1,165.2,118.5,165.2,111.7z"/>
			</g>
		</g>
		<path class="st5" d="M157.3,106.5c0,31.8-21.9,57.6-48.8,57.6c-27,0-48.8-25.8-48.8-57.6c0-31.8,4.7-66.5,48.8-66.5
			C152.5,40,157.3,74.7,157.3,106.5z"/>
		<path class="st6" d="M108.5,40c-38.6,0-47,26.5-48.5,54.5c1.2,6.4,2.5,10.9,2.5,10.9c7.4-12.3,9.7-28.7,10.3-34.7
			c6.9,3.5,15.7,6.6,26.3,7.9c24.1,2.9,36-6.1,44.7-10.2c0,0,1.3,21.7,10.5,37c0,0,1.4-4.9,2.7-12C155.3,65.9,146.4,40,108.5,40z"/>
		<path class="st6" d="M108.5,40c-44.1,0-48.8,34.7-48.8,66.5c0,31.8,21.9,57.6,48.8,57.6c27,0,48.8-25.8,48.8-57.6
			C157.3,74.7,152.5,40,108.5,40z M108.5,160.9c-25.6,0-46.3-24.4-46.3-54.6c0-30.1,4.4-63,46.3-63c41.6,0,46.3,32.9,46.3,63
			C154.8,136.4,134.1,160.9,108.5,160.9z"/>
		<path class="st8" d="M93.7,125.4c3.2,4.4,8.7,6.4,14.8,6.4c6.2,0,11.6-2,14.8-6.4"/>
		<path class="st9" d="M70.9,64.5c0,0-1.4,24.6-11.2,42c0,0-8.1-29.6-3.4-49.7c2.2-9.3,11.8-11.2,11.8-11.2L70.9,64.5z"/>
		<path class="st10" d="M68.2,45.6c0,0-0.9,0.2-2.3,0.7L67.7,59c0,0-1.3,22.3-9.8,39.5c1,4.9,1.8,8,1.8,8c9.8-17.4,11.2-42,11.2-42
			L68.2,45.6z"/>
		<path class="st10" d="M56.3,56.8c-0.3,1.4-0.6,2.9-0.8,4.5c3.7,3,8.6,6.4,14.7,9.3c0.5-3.8,0.6-6.2,0.6-6.2l-2.7-18.8
			C68.2,45.6,58.5,47.5,56.3,56.8z"/>
		<path class="st11" d="M157.3,106.5c0,0,8.1-29.6,3.4-49.7c-2.2-9.3-11.8-11.2-11.8-11.2s-8.1-16.2-30-22
			c-16-4.2-34.6,2.2-50.7,18.2c-8.9,8.9-17.9,8.9-17.9,8.9s15.9,21.1,48.4,25.3c25.6,3.3,38.3-6.9,47.5-11.6
			C146.2,64.5,147.6,89.1,157.3,106.5z"/>
		<path class="st12" d="M159,99.3c-8.4-17-10.1-29-9.7-39.1c0.1-2.5,1.3-10.5,1.8-13.8c-1.4-0.5-2.3-0.7-2.3-0.7s0,0,0-0.1
			c-0.7,3.4-2.5,11.8-2.7,19c0.1,1.6,1.8,25.1,11.2,41.9C157.3,106.5,158.1,103.7,159,99.3z"/>
		<g>
			<path class="st12" d="M146.2,64.5c0,0,0.1,1.4,0.3,3.8C146.3,65.9,146.2,64.5,146.2,64.5z"/>
			<path class="st12" d="M98.7,71.6C75,68.5,60.2,56.5,53.8,50.2c-2.2,0.5-3.6,0.5-3.6,0.5s15.9,21.1,48.4,25.3
				c25.6,3.3,38.3-6.9,47.5-11.6C137,69.1,124.3,74.9,98.7,71.6z"/>
		</g>
		<g>
			<path class="st11" d="M81.9,101.6c1.6,0,3,0.4,4.2,1c0.3-0.9,0.5-2,0.5-3.1c0-3.7-2.1-6.8-4.7-6.8c-2.6,0-4.7,3-4.7,6.8
				c0,1.1,0.2,2.1,0.5,3.1C78.9,102,80.4,101.6,81.9,101.6z"/>
			<path class="st13" d="M81.9,97c0,1.1-0.6,2-1.4,2c-0.8,0-1.4-0.9-1.4-2s0.6-2,1.4-2C81.3,95,81.9,95.9,81.9,97z"/>
		</g>
		<g>
			<path class="st11" d="M133.6,101.6c1.6,0,3,0.4,4.2,1c0.3-0.9,0.5-2,0.5-3.1c0-3.7-2.1-6.8-4.7-6.8s-4.7,3-4.7,6.8
				c0,1.1,0.2,2.1,0.5,3.1C130.6,102,132.1,101.6,133.6,101.6z"/>
			<path class="st13" d="M133.6,97c0,1.1-0.6,2-1.4,2s-1.4-0.9-1.4-2s0.6-2,1.4-2S133.6,95.9,133.6,97z"/>
		</g>
		<path class="st6" d="M119.8,105.3c0.1,0.6,0.1,1.2,0.1,1.8c0,7.1-5,9.1-11.3,9.1c-6.2,0-11.3-2-11.3-9.1c0-0.6,0-1.2,0.1-1.8
			c-0.5,1.4-0.8,2.9-0.8,4.4c0,7.1,5.3,9.1,11.9,9.1c6.6,0,11.9-2,11.9-9.1C120.6,108.2,120.3,106.7,119.8,105.3z"/>
		<path class="st14" d="M91.3,88.4c-2.1-3.7-5.5-6-9.3-6c-3.8,0-7.2,2.4-9.3,6"/>
		<path class="st14" d="M143,85.4c-2.1-3.7-5.5-6-9.3-6c-3.8,0-7.2,2.4-9.3,6"/>
	</g>
	<polygon class="st13" points="96.5,167.4 108.8,182.9 102.4,189.8 89.4,172 	"/>
	<polygon class="st13" points="121.1,167.4 108.5,182.9 114.9,189.8 127.9,172 	"/>
	<path class="st2" d="M49.6,200.1c4.1,2.6,8.3,5,12.8,7.1c-1-7.7-2.5-14.8-4.4-21.2c-1.8,1.3-3.2,2.6-4.2,3.9
		C52.1,192.2,50.7,195.8,49.6,200.1z"/>
	<path class="st2" d="M154,207.7c4.8-2.2,9.5-4.8,13.9-7.6c-1-4.3-2.4-7.9-4.2-10.3c-1.1-1.5-2.9-3-5-4.5
		C156.6,192.1,155,199.6,154,207.7z"/>
	<path class="st2" d="M105.2,217.5c1.2,0,2.4,0.1,3.6,0.1c1,0,2,0,3-0.1l-1.6-29.6h-3.4L105.2,217.5z"/>
</g>
</svg>
