<?xml version="1.0" encoding="utf-8"?>
<!-- Generator: Adobe Illustrator 23.0.2, SVG Export Plug-In . SVG Version: 6.00 Build 0)  -->
<svg version="1.1" id="Layer_1" xmlns="http://www.w3.org/2000/svg" xmlns:xlink="http://www.w3.org/1999/xlink" x="0px" y="0px"
	 viewBox="0 0 83.1 57.1" style="enable-background:new 0 0 83.1 57.1;" xml:space="preserve">
<style type="text/css">
	.st0{fill:#FFFFFF;}
	.st1{fill:#F2C4A7;}
	.st2{opacity:0.2;fill:#8A8A8A;}
	.st3{fill:#5F8C74;}
	.st4{fill:#DBDBDB;}
	.st5{fill:#FEEACB;}
	.st6{opacity:0.43;fill:#8A8A8A;}
	.st7{fill:#01777F;}
	.st8{opacity:0.67;}
	.st9{fill:#878787;}
</style>
<g>
	<rect x="13" y="23.5" class="st0" width="7.2" height="22.9"/>
	<path class="st1" d="M20.2,26v16.9l19.5-1.6l3.8-0.3l2.2-0.2l0.7,0l0,0h0l1.6-9l0.8-0.7l1.6-2.3l0,0h1.9l3.7-3.7l5.6-5.5L60.3,18
		l-0.7-0.8c-0.2-0.2-0.4-0.3-0.6-0.4c0,0-0.1,0-0.1,0c-0.1,0-0.1-0.1-0.2-0.1c0,0,0,0,0,0c-0.1-0.1-0.2-0.1-0.3-0.1
		c-0.1,0-0.2-0.1-0.3-0.1c-0.1,0-0.2,0-0.3,0c-0.1,0-0.2,0-0.2,0h-0.6l-12.5,0.3c-0.9,0-6.4,1.4-7.8,2.3L20.2,26z"/>
	<path class="st2" d="M20.2,26v16.9l7.9-0.6c-0.9-0.8-2.1-2.7-2.4-3.5c-1.7-4.4-2.7-9-2.8-13.9L20.2,26z"/>
	<g>
		<g>
			<path class="st3" d="M67.3,55.8c0.4,0.1,0.6,0.1,1.1,0.2c0.4-18,7.3-34.1,7.7-52.2c-0.4-0.1-0.6-0.1-1-0.2
				C74.6,21.6,67.8,37.7,67.3,55.8z"/>
			<path class="st4" d="M46.2,52.6c8.4,1.2,12.7,1.9,21.1,3.1c0.5-18,7.3-34.1,7.7-52.2C66.6,2.3,62.4,1.7,54,0.5
				c0.6,4.6,0.4,6.8-0.2,11.3c-0.5,3.1-0.8,4.6-1.6,7.7c-0.5,2-0.8,3-1.4,5.1c0,0,0,0,0,0c-0.5,1.7-0.8,2.6-1.3,4.3
				c-1.5,5.2-2.3,7.9-3.1,13.2C45.8,46.2,45.7,48.3,46.2,52.6z"/>
			<path class="st3" d="M64.3,13.1c-1.5-0.2-3,0.8-3.3,2.3c-0.3,1.5,0.7,2.9,2.2,3.1c1.5,0.2,3.1-0.8,3.4-2.3
				C66.9,14.7,65.9,13.3,64.3,13.1z"/>
			<path class="st3" d="M57.9,38.2c-1.6-0.2-3.1,0.8-3.4,2.3c-0.3,1.5,0.8,2.9,2.4,3.2c1.5,0.2,3-0.8,3.2-2.3
				C60.4,39.8,59.5,38.4,57.9,38.2z"/>
			<path class="st3" d="M73.5,5.2c-7-1-10.6-1.6-17.6-2.6c-0.1,0.1-0.2,0.1-0.2,0.2c0.4,16.6-8.5,31.2-8.1,47.8
				c0.1,0.1,0.2,0.2,0.3,0.3c7,1,10.6,1.6,17.6,2.6c0.1-0.1,0.2-0.1,0.2-0.2c-0.4-16.6,8.6-31.2,8.1-47.8
				C73.7,5.4,73.6,5.3,73.5,5.2z M68.8,6.5c0,1.5,1.3,2.9,2.9,3.1c-1.2,13.3-6.9,25.5-8.2,38.9c-1.6-0.2-3,0.8-3,2.3
				c-3.2-0.5-4.8-0.7-7.9-1.2c0-1.5-1.3-2.9-2.9-3.1c1.3-13.3,7-25.5,8.2-38.9c1.6,0.2,3-0.8,3-2.3C64,5.8,65.6,6.1,68.8,6.5z"/>
			<path class="st3" d="M58.9,34.3c3.3,0.5,6.6-1.7,7.5-4.9c0.9-3.2-1-6.2-4.2-6.6c-3.2-0.5-6.6,1.7-7.5,4.9
				C53.7,30.9,55.6,33.8,58.9,34.3z M61.4,31c-0.2,0-0.4-0.1-0.6-0.3c-0.1-0.1-0.2-0.2-0.3-0.3c-0.2-0.2-0.4-0.5-0.5-0.9
				c0-0.1-0.1-0.3-0.2-0.7c-0.1-0.3-0.2-0.5-0.2-0.7c-0.2-0.4-0.5-0.6-0.8-0.7c-0.2,0-0.4,0-0.5,0.1c-0.2,0.1-0.3,0.3-0.4,0.5
				c-0.1,0.2-0.1,0.4,0,0.6c0.1,0.2,0.3,0.3,0.5,0.4c-0.2,0.5-0.3,0.7-0.5,1.3c-0.3-0.1-0.5-0.2-0.7-0.4c-0.2-0.2-0.3-0.4-0.3-0.7
				c0-0.2,0-0.5,0-0.8c-0.3,0-0.4-0.1-0.7-0.1c0.1-0.4,0.2-0.6,0.3-1c0.3,0,0.4,0.1,0.7,0.1c0.1-0.3,0.3-0.5,0.5-0.7
				c0.5-0.5,1-0.7,1.6-0.6c0.3,0.1,0.6,0.2,0.9,0.4c0.2,0.2,0.4,0.6,0.6,1.1c0.2,0.6,0.4,1,0.5,1.3c0.2,0.4,0.4,0.6,0.7,0.6
				c0.2,0,0.4,0,0.5-0.1c0.3-0.1,0.4-0.4,0.5-0.6c0.1-0.2,0.1-0.4,0-0.6c-0.1-0.2-0.4-0.4-0.7-0.5c0.2-0.5,0.3-0.8,0.4-1.3
				c0.3,0.1,0.6,0.2,0.9,0.4c0.2,0.2,0.4,0.5,0.4,0.8c0.1,0.2,0.1,0.5,0,0.8c0.3,0,0.4,0.1,0.7,0.1c-0.1,0.4-0.2,0.6-0.3,1
				c-0.3,0-0.4-0.1-0.7-0.1c-0.1,0.1-0.1,0.2-0.2,0.3c-0.2,0.4-0.5,0.7-0.7,0.8C62.3,31,61.9,31.1,61.4,31z"/>
		</g>
	</g>
	<g>
		<g>
			<path class="st3" d="M65.6,56.8c0.4,0.1,0.6,0.2,1,0.3c3.5-17.7,13-32.4,16.5-50.1c-0.4-0.1-0.6-0.2-1-0.3
				C78.6,24.3,69.1,39.1,65.6,56.8z"/>
			<path class="st0" d="M45.3,50.1c8.1,2.7,12.2,4,20.3,6.6c3.5-17.7,13-32.4,16.5-50.1C74,4,69.9,2.7,61.8,0
				c-0.2,4.6-0.7,6.8-2.1,11.1c-1,3-1.6,4.4-2.9,7.3c-0.9,1.9-1.3,2.9-2.2,4.7c0,0,0,0,0,0c-0.8,1.6-1.2,2.4-2,4
				c-2.4,4.9-3.6,7.3-5.3,12.5C46,43.7,45.5,45.7,45.3,50.1z"/>
			<path class="st3" d="M69.9,14.2c-1.5-0.5-3.1,0.3-3.6,1.7c-0.5,1.4,0.2,3,1.7,3.5c1.5,0.5,3.2-0.3,3.7-1.7
				C72.2,16.3,71.3,14.7,69.9,14.2z"/>
			<path class="st3" d="M59.3,37.9c-1.5-0.5-3.2,0.3-3.7,1.7c-0.5,1.4,0.3,3,1.8,3.5c1.5,0.5,3.1-0.3,3.6-1.8
				C61.5,39.9,60.8,38.4,59.3,37.9z"/>
			<path class="st3" d="M80.3,8c-6.8-2.2-10.1-3.3-16.9-5.6c-0.1,0-0.2,0.1-0.3,0.2C60.7,19,49.4,32,46.9,48.3
				c0.1,0.1,0.1,0.2,0.2,0.3c6.8,2.2,10.1,3.3,16.9,5.6c0.1,0,0.2-0.1,0.3-0.2c2.4-16.4,13.7-29.3,16.1-45.7
				C80.4,8.2,80.3,8.1,80.3,8z M75.4,8.5c-0.2,1.5,0.8,3,2.3,3.6C74.2,25,66.5,36,63,49c-1.5-0.5-3.1,0.3-3.3,1.7
				c-3-1-4.6-1.5-7.6-2.5c0.2-1.5-0.8-3.1-2.3-3.6c3.5-12.9,11.2-24,14.7-36.9C66,8.2,67.5,7.5,67.8,6C70.8,7,72.3,7.5,75.4,8.5z"/>
			<path class="st3" d="M60.9,34.2c3.1,1,6.8-0.6,8.3-3.6c1.5-3,0.1-6.2-3-7.3c-3.1-1-6.8,0.6-8.3,3.6
				C56.4,29.9,57.8,33.2,60.9,34.2z M64,31.3c-0.2-0.1-0.4-0.2-0.5-0.4c-0.1-0.1-0.1-0.2-0.2-0.3c-0.2-0.2-0.3-0.6-0.4-0.9
				c0-0.1-0.1-0.3-0.1-0.7c0-0.3-0.1-0.5-0.1-0.7c-0.1-0.4-0.4-0.7-0.7-0.8c-0.2-0.1-0.4-0.1-0.5,0c-0.2,0.1-0.4,0.2-0.5,0.4
				c-0.1,0.2-0.1,0.4-0.1,0.5c0.1,0.2,0.2,0.4,0.5,0.5c-0.3,0.5-0.4,0.7-0.8,1.1c-0.3-0.1-0.5-0.3-0.6-0.5c-0.1-0.2-0.2-0.5-0.2-0.8
				c0-0.2,0-0.5,0.1-0.8c-0.3-0.1-0.4-0.1-0.7-0.2c0.2-0.4,0.3-0.5,0.4-0.9c0.3,0.1,0.4,0.1,0.7,0.2c0.2-0.3,0.4-0.5,0.6-0.6
				c0.5-0.4,1.1-0.5,1.7-0.3c0.3,0.1,0.6,0.3,0.8,0.6c0.2,0.2,0.3,0.6,0.4,1.1c0.1,0.6,0.2,1.1,0.3,1.4c0.1,0.4,0.3,0.6,0.6,0.7
				c0.2,0.1,0.3,0.1,0.5,0c0.3-0.1,0.5-0.3,0.6-0.5c0.1-0.2,0.1-0.4,0.1-0.6c-0.1-0.3-0.3-0.5-0.6-0.7c0.3-0.5,0.4-0.7,0.7-1.2
				c0.3,0.1,0.6,0.3,0.8,0.6c0.2,0.2,0.3,0.5,0.3,0.8c0,0.2,0,0.5-0.1,0.8c0.3,0.1,0.4,0.1,0.7,0.2c-0.2,0.4-0.3,0.5-0.4,0.9
				c-0.3-0.1-0.4-0.1-0.6-0.2c-0.1,0.1-0.1,0.2-0.2,0.3c-0.3,0.3-0.6,0.6-0.9,0.7C64.9,31.5,64.4,31.5,64,31.3z"/>
		</g>
	</g>
	<path class="st1" d="M46.5,40.7l0.6,0l2.8-0.2l0.6,0l6.2-0.3l4.7-0.3c1.7-0.1,1.2-0.1,2.9-0.1c2.1,0,5-0.3,6.5-2
		c1.3-1.5,1.2-3.5-0.6-4.9c0,0-0.1-0.1-0.1-0.1c-1-0.7-3.5-0.9-5.7-0.9c-0.9,0-1.5,0.1-2.4,0.1c-0.3,0-0.6,0-1,0l-10.6-0.2l-1.2,0
		l-1.2,0L46.5,40.7z"/>
	<path class="st5" d="M65.2,37.2c0.1,0.7,0.3,0.8,1.2,0.8c1.5,0,3.6-0.2,4.2-1.7c0.1-0.4,0.2-0.6,0.2-0.8c0.2-1.5-1-2.4-3.1-2.8
		c-0.5-0.1-1.3-0.3-1.8-0.2c-0.2,0.1-0.3,0.2-0.4,0.3c0.7,0.3,1.5,0.8,1.7,1.5C67.3,35.4,66.3,37.1,65.2,37.2z"/>
	<path class="st6" d="M48.1,31.7l0.7-0.7c0.2-0.7,0.4-1.5,0.7-2.3c0.5-1.7,0.7-2.6,1.3-4.3c0,0,0,0,0,0c0.6-2,0.9-3,1.4-5.1
		c0.3-1.1,0.5-2,0.7-2.9l-3.4,0.1C49.6,20.2,49.3,25.3,48.1,31.7z"/>
	<rect x="0" y="21.6" class="st7" width="13.6" height="26.8"/>
	<g class="st8">
		<path class="st9" d="M48.6,31.7l0.7,0l1,0h0.2l1.6,0l0.4,0l2,0l0.6,0L58,32l3.1,0.1c0.4,0,0.7,0,1,0c0.8,0,1.5-0.1,2.4-0.1
			c0.2,0,0.4,0,0.5,0c0.6,0,1.2,0,1.7,0.1c0.5,0,1,0.1,1.4,0.2c0.3,0,0.5,0.1,0.8,0.2c0.2,0,0.3,0.1,0.5,0.1
			c0.3,0.1,0.5,0.2,0.7,0.3c0,0,0.1,0.1,0.1,0.1c0.1,0.1,0.2,0.1,0.2,0.2h0c0,0,0.1,0.1,0.1,0.1c0-0.1,0-0.1-0.1-0.2v0
			c-0.2-0.5-0.4-0.9-0.7-1.3c-0.2-0.2-0.3-0.4-0.5-0.5c-0.1-0.1-0.2-0.1-0.3-0.2c-0.5-0.4-1.1-0.7-1.7-0.9c0,0,0,0,0,0
			c-0.3-0.1-0.6-0.2-1-0.3c-0.2-0.1-0.4-0.1-0.6-0.1c-0.4-0.1-0.9-0.1-1.3-0.2c-0.1,0-0.2,0-0.2,0c-0.1,0-0.3,0-0.4,0h-0.1
			c-0.3,0-0.5,0-0.8,0c-0.1,0-0.3,0-0.4,0c-0.3,0-0.5,0-0.7,0c-0.2,0-0.5,0-0.7,0c-0.3,0-0.5,0-0.8,0.1c0,0-0.1,0-0.1,0
			c-0.6,0-1.2,0.1-1.9,0.1c-0.3,0-0.5,0-0.8,0.1c-0.1,0-0.1,0-0.2,0c-0.6,0.1-1.2,0.1-1.7,0.1c-0.3,0-0.6,0-0.9,0c-0.5,0-1,0-1.5,0
			h-0.1c-0.6,0-1.2,0-1.8,0c-0.1,0-0.3,0-0.4,0c-0.5,0-1.1-0.1-1.6-0.2c-0.1,0.4-0.2,0.8-0.4,1.2C48.7,31.3,48.7,31.5,48.6,31.7z"/>
	</g>
</g>
</svg>
