<?xml version="1.0" encoding="utf-8"?>
<!-- Generator: Adobe Illustrator 23.0.2, SVG Export Plug-In . SVG Version: 6.00 Build 0)  -->
<svg version="1.1" id="Layer_1" focusable="false" xmlns="http://www.w3.org/2000/svg" xmlns:xlink="http://www.w3.org/1999/xlink"
	 x="0px" y="0px" viewBox="0 0 512 448" style="enable-background:new 0 0 512 448;" xml:space="preserve">
<style type="text/css">
	.st0{fill:#F7C119;}
</style>
<path class="st0" d="M462,209.6l-22-84.8C430.4,89.6,398.4,64,363.2,64H352V32c0-17.7-14.3-32-32-32H192c-17.7,0-32,14.3-32,32v32
	h-11.2c-35.2,0-67.2,25.6-76.8,60.8l-22,84.8C21.4,216,0,241.5,0,272v48c0,23.6,12.9,44,32,55.1V416c0,17.7,14.3,32,32,32h32
	c17.7,0,32-14.3,32-32v-32h256v32c0,17.7,14.3,32,32,32h32c17.7,0,32-14.3,32-32v-40.9c19-11.1,32-31.5,32-55.1v-48
	C512,241.5,490.6,216,462,209.6z M96,320c-17.7,0-32-14.3-32-32s14.3-32,32-32s32,14.3,32,32S113.7,320,96,320z M116.6,208
	l17.2-66.4c2.2-8.2,9.6-13.6,15.1-13.6h214.4c5.5,0,12.8,5.5,14.9,12.9l17.4,67.1H116.6L116.6,208z M416,320c-17.7,0-32-14.3-32-32
	s14.3-32,32-32s32,14.3,32,32S433.7,320,416,320z"/>
</svg>
