<?xml version="1.0" encoding="utf-8"?>
<!-- Generator: Adobe Illustrator 23.0.2, SVG Export Plug-In . SVG Version: 6.00 Build 0)  -->
<svg version="1.1" id="Layer_1" xmlns="http://www.w3.org/2000/svg" xmlns:xlink="http://www.w3.org/1999/xlink" x="0px" y="0px"
	 viewBox="0 0 89.1 40.1" style="enable-background:new 0 0 89.1 40.1;" xml:space="preserve">
<style type="text/css">
	.st0{fill:#FFFFFF;}
	.st1{fill:#FFDD00;}
	.st2{fill:#FFBF00;}
	.st3{opacity:0.42;fill:#B3B3B3;}
	.st4{fill:#666666;}
	.st5{fill:#019DB3;}
	.st6{fill:#4D4D4D;}
	.st7{opacity:0.42;fill:#FFFFFF;}
	.st8{fill:#FF8000;}
	.st9{fill:#281E35;}
	.st10{fill:#5C5C5C;}
	.st11{fill:#E5E5E5;}
	.st12{fill:#999999;}
	.st13{fill:#333333;}
</style>
<g>
	<path class="st0" d="M56,5.3h-5.3c-0.2,0-0.3-0.5-0.2-1.1l0.4-3.1C50.9,0.5,51.3,0,51.8,0H55c0.5,0,0.8,0.5,0.8,1.1l0.4,3.1
		C56.3,4.8,56.2,5.3,56,5.3z"/>
	<path class="st1" d="M68.5,9.1l-65.4-1c0.7-2.5,1.4-4.3,2-4.3L61.2,5C64.3,5.8,66.6,7.4,68.5,9.1z"/>
	<path class="st2" d="M89.1,29.2c0,1.7,0,5.7-0.9,7.4h-5.2c0.3-0.8,0.5-1.7,0.5-2.7c0-3.2-2.2-5.9-5.2-6.7C77.9,27,77.3,27,76.7,27
		c-3.8,0-7,3.1-7,7c0,0.9,0.2,1.8,0.5,2.7H27.7c0.3-0.8,0.5-1.7,0.5-2.7c0-0.5-0.1-1-0.1-1.4c-0.3-1.4-1-2.7-2.1-3.7
		c-1.2-1.2-2.9-1.9-4.8-1.9c-1.8,0-3.5,0.7-4.8,1.9c-1,1-1.8,2.2-2.1,3.7c-0.1,0.4-0.1,0.9-0.1,1.4c0,0.9,0.2,1.8,0.5,2.7H5.1
		c-2.7,0-4-1.7-4.6-4.1C0.1,31.4,0,30.2,0,28.8C0,26.1,0.4,23.1,0.6,21C0.9,17.8,2,12.1,3.1,8.1l65.4,1c1.1,1,2.1,2.1,3,3.1
		c2.7,2.8,7.6,9.6,12.8,11.2C89.4,25,89.1,27.1,89.1,29.2z"/>
	<path class="st3" d="M14.8,36.6H5.1c-2.7,0-4-1.7-4.6-4.1c-0.2-0.7-0.3-1.5-0.4-2.3c1.4,1.9,3.6,3.1,6.2,3.1h8.1c0,0.2,0,0.4,0,0.6
		C14.3,34.9,14.5,35.8,14.8,36.6z"/>
	<path class="st3" d="M27.7,36.6c0.3-0.8,0.5-1.7,0.5-2.7c0-0.2,0-0.4,0-0.6h41.5c0,0.2,0,0.4,0,0.6c0,0.9,0.2,1.8,0.5,2.7H27.7z"/>
	<path class="st3" d="M89.1,31c0,1.9-0.2,4.4-0.8,5.6h-5.2c0.3-0.8,0.5-1.7,0.5-2.7c0-0.2,0-0.4,0-0.6C85.8,33.3,87.7,32.4,89.1,31z
		"/>
	<path class="st4" d="M7.3,21.9c-1.1,0-2-0.9-2-2v-7.2c0-1.1,0.9-2,2-2H56c1.1,0,2,0.9,2,2v7.2c0,1.1-0.9,2-2,2H7.3z"/>
	<path class="st5" d="M56.7,12.7v7.2c0,0.4-0.3,0.7-0.7,0.7H7.3c-0.4,0-0.7-0.3-0.7-0.7v-7.2c0-0.4,0.3-0.7,0.7-0.7H56
		C56.4,12,56.7,12.3,56.7,12.7z"/>
	<path class="st4" d="M71.7,24.8c-0.8-0.3-3.5-1.3-5.8-2.2c-5.2-2.1-5.3-2.4-5.6-3.1l-0.3-0.9c-0.3-0.9-0.5-1.7-0.7-2.5
		c0-0.1-0.1-0.3-0.1-0.5c-0.3-1.2-0.7-2.8,0.1-3.9c0.4-0.5,0.9-0.8,1.6-0.8l5.1-0.2l0.2,0c1.2,0,2.1,0.6,2.9,1.1l0.1,0.1l5.7,6.4
		l0.1,0.1c0.4,0.7,0.4,1.5,0.4,2.1c0,0.1,0,0.2,0,0.4c0.1,2.4-1.1,3.1-2.5,3.7L72.3,25L71.7,24.8z"/>
	<path class="st5" d="M73.9,21c0.1,1.5-0.4,1.8-1.8,2.4c-1.5-0.5-10.2-3.8-10.4-4.4c-0.4-1.2-0.7-2.2-0.9-3.3
		c-0.2-1-1.1-3.3,0.2-3.4c1.6-0.1,3.4-0.1,5.1-0.2c0.8,0,1.5,0.4,2.1,0.8l5.5,6.2C74,19.7,73.9,20.3,73.9,21z"/>
	<rect x="16.7" y="12" class="st6" width="2.6" height="8.6"/>
	<rect x="30.4" y="12" class="st6" width="2.6" height="8.6"/>
	<rect x="43.4" y="12" class="st6" width="2.6" height="8.6"/>
	<polygon class="st7" points="56,13.4 56,16.2 46.7,17 46.7,13.9 	"/>
	<path class="st0" d="M88.5,29.4c0,0.5,0,1.1,0,1.9C88,31.1,87.6,31,87.1,31c-0.1-1.5-0.7-2.8-1.2-4.1c0.4-0.5,0.9-1,1.5-1.3
		C88.6,26.8,88.5,28.1,88.5,29.4z"/>
	<path class="st6" d="M16.5,28.8c-1,1-1.8,2.2-2.1,3.7h-14C0.1,31.4,0,30.2,0,28.8H16.5z"/>
	<path class="st6" d="M56.7,30.7c0,1-0.8,1.8-1.8,1.8H28.1c-0.3-1.4-1-2.7-2.1-3.7h28.9C55.9,28.8,56.7,29.7,56.7,30.7z"/>
	<path class="st8" d="M2.6,23.4v5.5H0c0-2.3,0.2-4.8,0.5-6.8C1.2,22.4,1.9,22.9,2.6,23.4z"/>
	<polygon class="st7" points="29.6,14.9 29.6,18.4 20,19.3 20,15.4 	"/>
	<polygon class="st7" points="42.7,14.1 42.7,17.3 33.7,18.1 33.7,14.6 	"/>
	<polygon class="st7" points="16,15.6 16,19.6 11.9,20 7.3,20 7.3,16.1 	"/>
	<polygon class="st7" points="56,18.1 56,19.5 52.9,20 46.7,20 46.7,19.3 	"/>
	<g>
		<path class="st6" d="M76.2,22c0,1.2-1,2.2-2.2,2.2c-1.2,0-2.2-1-2.2-2.2c0-1.2,1-2.2,2.2-2.2C75.2,19.8,76.2,20.8,76.2,22z"/>
		<path class="st2" d="M74.2,21.6c0,0.6-0.5,1-1,1c-0.6,0-1-0.5-1-1c0-0.6,0.5-1,1-1C73.7,20.6,74.2,21,74.2,21.6z"/>
		<path class="st1" d="M73.5,17.7v5.8c0,0.8-0.6,1.4-1.4,1.4v-8.6C72.9,16.3,73.5,16.9,73.5,17.7z"/>
	</g>
	<path class="st4" d="M28.2,33.9c0,0.9-0.2,1.8-0.5,2.7H14.8c-0.3-0.8-0.5-1.7-0.5-2.7c0-0.5,0.1-1,0.1-1.4c0.3-1.4,1-2.7,2.1-3.7
		c1.2-1.2,2.9-1.9,4.8-1.9c1.8,0,3.5,0.7,4.8,1.9c1,1,1.8,2.2,2.1,3.7C28.2,33,28.2,33.4,28.2,33.9z"/>
	<path class="st4" d="M83.6,33.9c0,0.9-0.2,1.8-0.5,2.7H70.2c-0.3-0.8-0.5-1.7-0.5-2.7c0-3.8,3.1-7,7-7c0.6,0,1.2,0.1,1.8,0.2
		C81.4,28,83.6,30.7,83.6,33.9z"/>
	<g>
		<path class="st9" d="M76.7,28c-3.4,0-6.1,2.7-6.1,6.1s2.7,6.1,6.1,6.1c3.3,0,6.1-2.7,6.1-6.1S80,28,76.7,28z M76.7,38.5
			c-0.8,0-1.5-0.2-2.1-0.5l-0.4-0.2c-0.1-0.1-0.2-0.2-0.3-0.2l0,0l-0.3-0.3l0,0c-0.8-0.8-1.3-1.9-1.3-3.2c0-0.3,0-0.5,0.1-0.7
			c0-0.2,0.1-0.3,0.1-0.5c0-0.1,0.1-0.2,0.1-0.4c0.1-0.2,0.1-0.3,0.2-0.4c0.6-1.3,1.9-2.2,3.3-2.4c0.1,0,0.3,0,0.5,0
			c0.1,0,0.1,0,0.2,0c0.1,0,0.1,0,0.2,0c0.2,0,0.3,0,0.5,0c1.5,0.2,2.7,1.1,3.3,2.4c0.1,0.1,0.1,0.3,0.2,0.4c0,0.1,0.1,0.2,0.1,0.4
			c0,0.2,0.1,0.3,0.1,0.5c0,0.2,0.1,0.5,0.1,0.7c0,1.3-0.5,2.4-1.3,3.2l-0.4,0.3c-0.1,0.1-0.2,0.2-0.3,0.2c-0.1,0.1-0.3,0.2-0.4,0.2
			C78.1,38.3,77.4,38.5,76.7,38.5z"/>
		<path class="st10" d="M81.1,34c0,1.2-0.5,2.4-1.3,3.2l-0.4,0.3c-0.1,0.1-0.2,0.2-0.3,0.2c-0.1,0.1-0.3,0.2-0.4,0.2
			c-0.6,0.3-1.3,0.5-2.1,0.5c-0.8,0-1.5-0.2-2.1-0.5l-0.4-0.2c-0.1-0.1-0.2-0.1-0.3-0.2l0,0l-0.3-0.3l0,0c-0.8-0.8-1.3-1.9-1.3-3.2
			c0-0.3,0-0.5,0.1-0.7c0-0.1,0.1-0.3,0.1-0.5c0-0.1,0.1-0.2,0.1-0.4c0.1-0.1,0.1-0.3,0.2-0.4c0.6-1.3,1.9-2.2,3.3-2.4
			c0.1,0,0.3,0,0.5,0c0.1,0,0.1,0,0.2,0c0.1,0,0.1,0,0.2,0c0.2,0,0.3,0,0.5,0c1.5,0.2,2.7,1.1,3.3,2.4c0.1,0.1,0.1,0.3,0.2,0.4
			c0.1,0.1,0.1,0.2,0.1,0.4c0,0.1,0.1,0.3,0.1,0.5C81.1,33.5,81.1,33.8,81.1,34z"/>
		<g>
			<g>
				<path class="st11" d="M81.1,33.3c0-0.2-0.1-0.3-0.1-0.5c0-0.1-0.1-0.2-0.1-0.4c-0.1-0.2-0.1-0.3-0.2-0.4
					c-0.6-1.3-1.9-2.2-3.3-2.4c-0.1,0-0.3,0-0.5,0c-0.1,0-0.1,0-0.2,0c-0.1,0-0.1,0-0.2,0c-0.1,0-0.3,0-0.5,0
					c-1.5,0.2-2.7,1.1-3.3,2.4c-0.1,0.2-0.2,0.3-0.2,0.4c0,0.1-0.1,0.2-0.1,0.4c0,0.2-0.1,0.3-0.1,0.5c0,0.2-0.1,0.5-0.1,0.7
					c0,1.3,0.5,2.4,1.3,3.2l0,0l0.3,0.3l0,0c0.1,0.1,0.2,0.2,0.3,0.2l0.4,0.2c0.6,0.3,1.3,0.5,2.1,0.5c0.7,0,1.4-0.2,2.1-0.5
					c0.1-0.1,0.3-0.1,0.4-0.2c0.1-0.1,0.2-0.1,0.3-0.2l0.4-0.3c0.8-0.8,1.3-1.9,1.3-3.2C81.1,33.8,81.1,33.5,81.1,33.3z M77.3,30
					c1.3,0.2,2.4,1,3,2.1l-1.9,0.6L77.6,33l-0.3,0.1V30z M76.7,33.6c0.2,0,0.4,0.2,0.4,0.4c0,0.2-0.2,0.4-0.4,0.4
					c-0.2,0-0.4-0.2-0.4-0.4C76.3,33.8,76.5,33.6,76.7,33.6z M76,30v3.1L75.7,33l-0.8-0.2L73,32.1C73.6,31,74.7,30.2,76,30z
					 M73.8,36.9c-0.8-0.8-1.2-1.8-1.2-2.9c0-0.2,0-0.4,0-0.6l1.9,0.6l0.8,0.2l0.3,0.1l-0.2,0.3l-0.5,0.7L73.8,36.9z M76.7,38.1
					c-0.7,0-1.3-0.2-1.8-0.4l1.2-1.6l0.5-0.7l0.2-0.3l0.2,0.3l0.5,0.7l1.2,1.6C77.9,38,77.3,38.1,76.7,38.1z M79.6,36.9l-1.2-1.6
					l-0.5-0.7l-0.2-0.3l0.3-0.1l0.8-0.2l1.9-0.6c0,0.2,0,0.4,0,0.6C80.8,35.1,80.3,36.1,79.6,36.9z"/>
			</g>
		</g>
		<path class="st11" d="M79.5,34c0,1.5-1.3,2.8-2.8,2.8c-1.5,0-2.8-1.3-2.8-2.8c0-1.5,1.3-2.8,2.8-2.8C78.2,31.2,79.5,32.5,79.5,34z
			"/>
		<path class="st12" d="M78,34c0,0.7-0.6,1.3-1.4,1.3c-0.7,0-1.3-0.6-1.3-1.3s0.6-1.3,1.3-1.3C77.4,32.7,78,33.3,78,34z"/>
	</g>
	<g>
		<path class="st9" d="M21.3,28c-3.4,0-6.1,2.7-6.1,6.1s2.7,6.1,6.1,6.1c3.3,0,6.1-2.7,6.1-6.1S24.6,28,21.3,28z M21.3,38.5
			c-0.8,0-1.5-0.2-2.1-0.5l-0.4-0.2c-0.1-0.1-0.2-0.2-0.3-0.2l0,0l-0.3-0.3l0,0c-0.8-0.8-1.3-1.9-1.3-3.2c0-0.3,0-0.5,0.1-0.7
			c0-0.2,0.1-0.3,0.1-0.5c0-0.1,0.1-0.2,0.1-0.4c0.1-0.2,0.1-0.3,0.2-0.4c0.6-1.3,1.9-2.2,3.3-2.4c0.1,0,0.3,0,0.5,0
			c0.1,0,0.1,0,0.2,0c0.1,0,0.1,0,0.2,0c0.2,0,0.3,0,0.5,0c1.5,0.2,2.7,1.1,3.3,2.4c0.1,0.1,0.1,0.3,0.2,0.4c0,0.1,0.1,0.2,0.1,0.4
			c0,0.2,0.1,0.3,0.1,0.5c0,0.2,0.1,0.5,0.1,0.7c0,1.3-0.5,2.4-1.3,3.2L24,37.5c-0.1,0.1-0.2,0.2-0.3,0.2c-0.1,0.1-0.3,0.2-0.4,0.2
			C22.7,38.3,22,38.5,21.3,38.5z"/>
		<path class="st10" d="M25.7,34c0,1.2-0.5,2.4-1.3,3.2L24,37.5c-0.1,0.1-0.2,0.2-0.3,0.2c-0.1,0.1-0.3,0.2-0.4,0.2
			c-0.6,0.3-1.3,0.5-2.1,0.5c-0.8,0-1.5-0.2-2.1-0.5l-0.4-0.2c-0.1-0.1-0.2-0.1-0.3-0.2l0,0l-0.3-0.3l0,0c-0.8-0.8-1.3-1.9-1.3-3.2
			c0-0.3,0-0.5,0.1-0.7c0-0.1,0.1-0.3,0.1-0.5c0-0.1,0.1-0.2,0.1-0.4c0.1-0.1,0.1-0.3,0.2-0.4c0.6-1.3,1.9-2.2,3.3-2.4
			c0.1,0,0.3,0,0.5,0c0.1,0,0.1,0,0.2,0c0.1,0,0.1,0,0.2,0c0.2,0,0.3,0,0.5,0c1.5,0.2,2.7,1.1,3.3,2.4c0.1,0.1,0.1,0.3,0.2,0.4
			c0.1,0.1,0.1,0.2,0.1,0.4c0,0.1,0.1,0.3,0.1,0.5C25.7,33.5,25.7,33.8,25.7,34z"/>
		<g>
			<g>
				<path class="st11" d="M25.7,33.3c0-0.2-0.1-0.3-0.1-0.5c0-0.1-0.1-0.2-0.1-0.4c-0.1-0.2-0.1-0.3-0.2-0.4
					c-0.6-1.3-1.9-2.2-3.3-2.4c-0.2,0-0.3,0-0.5,0c-0.1,0-0.1,0-0.2,0c-0.1,0-0.1,0-0.2,0c-0.1,0-0.3,0-0.5,0
					c-1.5,0.2-2.7,1.1-3.3,2.4c-0.1,0.2-0.2,0.3-0.2,0.4c0,0.1-0.1,0.2-0.1,0.4c0,0.2-0.1,0.3-0.1,0.5c0,0.2-0.1,0.5-0.1,0.7
					c0,1.3,0.5,2.4,1.3,3.2l0,0l0.3,0.3l0,0c0.1,0.1,0.2,0.2,0.3,0.2l0.4,0.2c0.6,0.3,1.3,0.5,2.1,0.5c0.7,0,1.4-0.2,2.1-0.5
					c0.1-0.1,0.3-0.1,0.4-0.2c0.1-0.1,0.2-0.1,0.3-0.2l0.4-0.3c0.8-0.8,1.3-1.9,1.3-3.2C25.7,33.8,25.7,33.5,25.7,33.3z M21.9,30
					c1.3,0.2,2.4,1,3,2.1L23,32.8L22.2,33l-0.3,0.1V30z M21.3,33.6c0.2,0,0.4,0.2,0.4,0.4c0,0.2-0.2,0.4-0.4,0.4
					c-0.2,0-0.4-0.2-0.4-0.4C20.9,33.8,21.1,33.6,21.3,33.6z M20.6,30v3.1L20.3,33l-0.8-0.2l-1.9-0.6C18.2,31,19.3,30.2,20.6,30z
					 M18.4,36.9c-0.8-0.8-1.2-1.8-1.2-2.9c0-0.2,0-0.4,0-0.6l1.9,0.6l0.8,0.2l0.3,0.1L20,34.6l-0.5,0.7L18.4,36.9z M21.3,38.1
					c-0.7,0-1.3-0.2-1.8-0.4l1.2-1.6l0.5-0.7l0.2-0.3l0.2,0.3l0.5,0.7l1.2,1.6C22.5,38,21.9,38.1,21.3,38.1z M24.2,36.9L23,35.3
					l-0.5-0.7l-0.2-0.3l0.3-0.1l0.8-0.2l1.9-0.6c0,0.2,0,0.4,0,0.6C25.4,35.1,24.9,36.1,24.2,36.9z"/>
			</g>
		</g>
		<path class="st11" d="M24.1,34c0,1.5-1.3,2.8-2.8,2.8c-1.5,0-2.8-1.3-2.8-2.8c0-1.5,1.3-2.8,2.8-2.8C22.8,31.2,24.1,32.5,24.1,34z
			"/>
		<path class="st12" d="M22.6,34c0,0.7-0.6,1.3-1.3,1.3c-0.7,0-1.4-0.6-1.4-1.3s0.6-1.3,1.4-1.3C22,32.7,22.6,33.3,22.6,34z"/>
	</g>
	<polygon class="st7" points="61,13.4 61.4,15.5 68.5,14.3 67.5,13.1 66.7,13 	"/>
	<polygon class="st7" points="61.8,17.3 62.1,18.5 70.4,16.7 69.5,15.8 	"/>
	<g>
		<rect x="33.3" y="25.4" class="st13" width="1.8" height="1.8"/>
		<rect x="31.5" y="23.6" class="st13" width="1.8" height="1.8"/>
		<rect x="29.8" y="25.4" class="st13" width="1.8" height="1.8"/>
		<rect x="26.2" y="25.4" class="st13" width="1.8" height="1.8"/>
		<rect x="28" y="23.6" class="st13" width="1.8" height="1.8"/>
		<rect x="38.6" y="23.6" class="st13" width="1.8" height="1.8"/>
		<rect x="36.9" y="25.4" class="st13" width="1.8" height="1.8"/>
		<rect x="35.1" y="23.6" class="st13" width="1.8" height="1.8"/>
		<rect x="54.5" y="25.4" class="st13" width="1.8" height="1.8"/>
		<rect x="52.8" y="23.6" class="st13" width="1.8" height="1.8"/>
		<rect x="51" y="25.4" class="st13" width="1.8" height="1.8"/>
		<rect x="49.2" y="23.6" class="st13" width="1.8" height="1.8"/>
		<rect x="61.6" y="25.4" class="st13" width="1.8" height="1.8"/>
		<rect x="59.9" y="23.6" class="st13" width="1.8" height="1.8"/>
		<rect x="58.1" y="25.4" class="st13" width="1.8" height="1.8"/>
		<rect x="56.3" y="23.6" class="st13" width="1.8" height="1.8"/>
		<g>
			<path class="st13" d="M42,24.2h-0.6v-0.5h1.6v0.5h-0.5v2.9H42V24.2z"/>
			<path class="st13" d="M43.7,26.3l-0.1,0.8H43l0.6-3.4h0.7l0.6,3.4h-0.5l-0.1-0.8H43.7z M44,24.4l-0.2,1.4h0.4L44,24.4z"/>
			<path class="st13" d="M47.2,27.1h-0.6L46.2,26l-0.4,1.1h-0.6l0.7-1.7l-0.7-1.7h0.6l0.4,1.1l0.4-1.1h0.6l-0.7,1.7L47.2,27.1z"/>
			<path class="st13" d="M48.1,27.1h-0.5v-3.4h0.5V27.1z"/>
		</g>
	</g>
</g>
</svg>
